<?xml version="1.0" encoding="UTF-8" standalone="no"?>
<!-- Created with Inkscape (http://www.inkscape.org/) -->

<svg
   xmlns:dc="http://purl.org/dc/elements/1.1/"
   xmlns:cc="http://creativecommons.org/ns#"
   xmlns:rdf="http://www.w3.org/1999/02/22-rdf-syntax-ns#"
   xmlns:svg="http://www.w3.org/2000/svg"
   xmlns="http://www.w3.org/2000/svg"
   xmlns:sodipodi="http://sodipodi.sourceforge.net/DTD/sodipodi-0.dtd"
   xmlns:inkscape="http://www.inkscape.org/namespaces/inkscape"
   version="1.1"
   id="svg14848"
   width="36.282513"
   height="32.008736"
   viewBox="0 0 36.282513 32.008736"
   sodipodi:docname="chaypara.svg"
   inkscape:version="0.92.4 (5da689c313, 2019-01-14)">
  <metadata
     id="metadata14854">
    <rdf:RDF>
      <cc:Work
         rdf:about="">
        <dc:format>image/svg+xml</dc:format>
        <dc:type
           rdf:resource="http://purl.org/dc/dcmitype/StillImage" />
        <dc:title></dc:title>
      </cc:Work>
    </rdf:RDF>
  </metadata>
  <defs
     id="defs14852" />
  <sodipodi:namedview
     pagecolor="#ffffff"
     bordercolor="#666666"
     borderopacity="1"
     objecttolerance="10"
     gridtolerance="10"
     guidetolerance="10"
     inkscape:pageopacity="0"
     inkscape:pageshadow="2"
     inkscape:window-width="1920"
     inkscape:window-height="1017"
     id="namedview14850"
     showgrid="false"
     inkscape:zoom="7.3725989"
     inkscape:cx="17.73169"
     inkscape:cy="16.140896"
     inkscape:window-x="-8"
     inkscape:window-y="-8"
     inkscape:window-maximized="1"
     inkscape:current-layer="svg14848" />
  <path
     style="fill:#000000;stroke-width:0.03126018"
     d="m 29.532936,31.986949 c -0.610355,-0.0038 -5.871442,-0.02827 -11.691306,-0.05435 -5.819863,-0.02608 -11.9425588,-0.05656 -13.6059908,-0.06774 l -3.024422,-0.02032 v -0.233958 c 0,-0.230981 -0.0071,-0.251551 -0.56086696,-1.61799 -0.30847702,-0.761224 -0.58455202,-1.456453 -0.61350002,-1.544958 -0.08571,-0.262029 -0.02085,-0.473291 0.183555,-0.597925 0.09604,-0.05856 0.171338,-0.06092 1.95206198,-0.06103 1.529547,-9.4e-5 1.852166,-0.0074 1.852166,-0.04211 0,-0.0231 -0.02878,-0.125085 -0.06397,-0.226637 -0.487403,-1.406897 -0.928839,-3.395884 -1.105946,-4.983078 -0.171476,-1.536736 -0.190501,-2.533621 -0.09237,-4.840195 0.03152,-0.740813 0.07589,-0.791162 0.746492,-0.847036 0.626965,-0.05224 2.136358,-0.153387 2.647147,-0.177393 0.252414,-0.01186 0.47605,-0.03215 0.496968,-0.04507 0.03658,-0.02261 -0.146898,-1.275963 -0.443227,-3.027759 -0.326972,-1.93295 -0.774415,-2.688123 -2.677319,-4.5186539 -0.364305,-0.35045 -0.399698,-0.421441 -0.339375,-0.680714 0.04625,-0.198775 0.117742,-0.314695 0.223935,-0.363079 0.04758,-0.02168 0.250794,-0.03608 0.509105,-0.03608 0.961427,0 2.15245,-0.156096 3.224576,-0.422615 0.163335,-0.0406 0.41831,-0.08349 0.566611,-0.0953 l 0.269639,-0.02148 0.109482,0.105579 c 0.06021,0.05807 0.324922,0.478357 0.588237,0.933974 1.0604439,1.8348969 2.2754898,3.8079019 3.1945238,5.1873039 0.464037,0.696485 1.131909,1.64478 1.178813,1.673768 0.02332,0.01441 0.03213,-0.07988 0.09636,-1.03105 0.08901,-1.318169 0.06793,-3.452806 -0.04785,-4.8453259 -0.08808,-1.059375 -0.08994,-1.122766 -0.03599,-1.227095 0.07047,-0.136276 0.186594,-0.217498 0.394267,-0.275768 l 0.18039,-0.05061 0.05546,-0.207957 c 0.369732,-1.386323 1.157579,-2.682146 2.202899,-3.623251 0.964956,-0.868753 1.97485,-1.434762 3.186615,-1.785981 0.176286,-0.0511 0.327579,-0.09996 0.336206,-0.108586 0.0086,-0.0086 -0.01622,-0.09754 -0.05521,-0.197588 -0.05711,-0.146522 -0.07076,-0.242707 -0.07017,-0.494505 0.0011,-0.477746 0.150004,-0.82087474 0.491567,-1.13279814 0.730164,-0.6668031 1.854474,-0.4310684 2.307852,0.4838886 0.122151,0.24650954 0.132268,0.28667954 0.143664,0.57041954 0.0087,0.216435 -0.002,0.353819 -0.0367,0.472235 -0.05203,0.177499 -0.03747,0.214351 0.08512,0.21535 0.13191,0.0011 0.811485,0.171023 1.197934,0.299579 1.995654,0.663874 3.732022,2.156388 4.708664,4.047382 0.110622,0.214189 0.241481,0.490138 0.290797,0.61322 l 0.08967,0.223784 0.189277,-0.0083 c 0.104103,-0.0046 0.243193,-0.02614 0.309091,-0.04788 0.142498,-0.04703 0.377656,-0.02547 0.523722,0.04802 0.135217,0.06803 0.366546,0.290003 0.405427,0.389025 0.08789,0.223848 0.127154,1.179011 0.07035,1.711495 l -0.01751,0.164116 h 0.217759 c 0.119767,0 0.363436,0.01474 0.541487,0.03275 2.888764,0.2922241 5.141057,2.5445149 5.43328,5.4332789 0.191997,1.897956 -0.534734,3.741918 -2.146568,5.446581 -0.339001,0.358528 -0.811251,0.815617 -1.151487,1.114525 l -0.220415,0.193642 0.05298,0.40435 c 0.0997,0.760943 0.131362,1.381228 0.112396,2.202181 -0.02796,1.210374 -0.168549,2.072299 -0.506087,3.102711 -0.06015,0.183634 -0.109369,0.339124 -0.109369,0.345533 0,0.0064 0.172321,0.01169 0.382937,0.01174 0.788153,1.56e-4 1.648974,0.03999 1.648974,0.07629 0,0.01935 0.04117,0.05951 0.09149,0.08923 0.05032,0.02972 0.122324,0.103939 0.160015,0.164926 0.128751,0.208325 0.09716,0.308454 -0.512933,1.625846 l -0.551333,1.190499 v 0.505365 0.505365 l -1.430153,-0.0074 c -0.786584,-0.0041 -1.929534,-0.01052 -2.539889,-0.01434 z m 3.450373,-2.04549 0.385391,-0.832451 -2.754092,-0.01909 c -9.993312,-0.06926 -29.0282688,-0.11222 -29.0282688,-0.06551 0,0.01306 0.623712,1.571406 0.640506,1.600311 0.0023,0.0039 6.002886,0.03589 13.3346948,0.07107 7.331809,0.03518 13.94248,0.06746 14.69038,0.07175 0.7479,0.0043 1.581709,0.0075 1.852909,0.0071 l 0.493092,-7.09e-4 0.385388,-0.832451 z m -1.637283,-2.162543 c 0,-0.03969 0.04323,-0.190615 0.09606,-0.335385 0.21612,-0.592185 0.415066,-1.509829 0.501263,-2.312083 0.0497,-0.46254 0.05045,-1.680938 0.0014,-2.203843 -0.05256,-0.559905 -0.129554,-1.113411 -0.163781,-1.17736 -0.0157,-0.02932 -0.02854,-0.114612 -0.02854,-0.189541 0,-0.415273 -0.436393,-2.232239 -0.985593,-4.10363 -1.104584,-3.763845 -1.402626,-5.058828 -1.546711,-6.720415 -0.01936,-0.223222 -0.03969,-0.410353 -0.04518,-0.415846 -0.0055,-0.0055 -3.377138,0.138505 -7.492546,0.319995 -4.115407,0.18149 -7.498502,0.329936 -7.517988,0.32988 -0.02571,-6.2e-5 -0.0398,0.426388 -0.05135,1.555093 -0.01548,1.511295 -0.05006,2.221491 -0.163859,3.364849 -0.02548,0.256007 -0.04633,0.48942 -0.04633,0.518695 0,0.04918 0.120734,0.0547 1.586454,0.07257 1.991398,0.02428 3.396129,0.07648 3.528279,0.131113 0.159321,0.06586 0.254206,0.224649 0.337967,0.565574 0.09092,0.370081 0.236652,1.111808 0.236652,1.204516 0,0.05448 0.01224,0.0619 0.07034,0.04261 0.156796,-0.05205 0.882766,-0.05324 1.156765,-0.0019 1.729927,0.32416 3.167074,1.819424 3.368266,3.504477 0.04012,0.336041 0.02489,0.637451 -0.05208,1.030571 -0.323273,1.651008 -1.947676,2.941387 -4.525967,3.595299 l -0.404697,0.10264 -0.164805,0.542434 c -0.09064,0.298339 -0.165254,0.559937 -0.165801,0.58133 -0.0011,0.04111 0.639152,0.04566 8.837819,0.06288 l 3.633995,0.0076 z M 18.053944,27.280585 c 0.352481,-1.115248 0.570994,-2.088804 0.735918,-3.278792 l 0.01576,-0.113699 -0.317879,-0.04906 C 16.841507,23.58493 15.385176,23.48953 13.545424,23.515272 10.47783,23.558192 7.7714952,23.998773 5.0093282,24.904905 l -0.750244,0.246118 0.0094,0.09181 c 0.01773,0.173361 0.323045,1.248891 0.531873,1.873638 l 0.208981,0.625204 2.500814,0.01591 c 1.375448,0.0088 4.2743618,0.0193 6.4420328,0.02344 l 3.941218,0.0075 z m 2.103347,-1.83912 c 1.700188,-0.563794 2.682096,-1.358253 3.029722,-2.451339 0.106766,-0.335718 0.121959,-0.911485 0.03382,-1.281668 -0.236705,-0.994149 -1.0958,-1.898285 -2.143772,-2.25617 -0.399131,-0.136304 -0.923626,-0.19907 -1.234777,-0.147765 l -0.109411,0.01804 0.04432,0.475118 0.04432,0.475119 0.268285,0.0033 c 0.581545,0.0072 1.089753,0.238575 1.494641,0.680439 0.333737,0.364215 0.503121,0.77459 0.529694,1.283314 0.03349,0.641196 -0.187633,1.225769 -0.639891,1.691633 -0.390565,0.402315 -0.902986,0.661415 -1.485417,0.751084 -0.175156,0.02697 -0.334289,0.05347 -0.353629,0.0589 -0.01934,0.0054 -0.0448,0.08484 -0.05658,0.176465 -0.01178,0.09163 -0.04641,0.291115 -0.07694,0.443302 l -0.05552,0.276702 0.114511,-0.01831 c 0.06298,-0.01007 0.331467,-0.09025 0.596636,-0.178187 z M 5.6805502,23.73997 c 2.183078,-0.615859 4.2959849,-0.970526 6.6097368,-1.109492 0.721483,-0.04333 2.694819,-0.04317 3.414217,2.81e-4 1.04583,0.06317 2.157657,0.179488 2.881394,0.301438 0.160047,0.02697 0.297432,0.0426 0.305299,0.03473 0.0079,-0.0079 0.02334,-0.304793 0.03439,-0.659835 0.01951,-0.627207 0.01834,-0.645522 -0.04121,-0.645522 -0.03371,0 -0.363006,-0.02806 -0.731763,-0.06235 -4.087995,-0.380158 -8.2619229,-0.235251 -12.2367328,0.424824 -0.818726,0.135962 -2.085465,0.38657 -2.121201,0.419653 -0.01481,0.01371 -0.01084,0.148306 0.0089,0.301236 0.04586,0.355656 0.223881,1.458197 0.23966,1.484301 0.0066,0.01098 0.268536,-0.0638 0.582,-0.166183 0.313464,-0.102379 0.788367,-0.247765 1.055339,-0.32308 z M 20.216175,23.68591 c 0.677468,-0.251494 1.088137,-0.894112 0.972488,-1.521758 -0.07345,-0.398607 -0.329224,-0.740457 -0.668812,-0.893877 -0.187087,-0.08452 -0.413003,-0.123888 -0.544827,-0.09493 l -0.09185,0.02017 -0.02166,0.741004 c -0.02021,0.691272 -0.05335,1.236936 -0.101735,1.675221 l -0.02031,0.183972 0.151774,-0.02276 c 0.08347,-0.01252 0.229695,-0.05169 0.324932,-0.08704 z M 4.3841252,21.367872 c 4.495246,-0.880636 9.3961358,-1.118536 13.8917948,-0.674339 0.350614,0.03464 0.640072,0.05913 0.64324,0.05442 0.01251,-0.0186 -0.04786,-0.814398 -0.09313,-1.22771 -0.05428,-0.495532 -0.207642,-1.446282 -0.289939,-1.79746 l -0.05494,-0.234452 -0.280682,-0.0199 c -1.302384,-0.09237 -6.481589,-0.108852 -8.8147158,-0.02806 -1.942065,0.06725 -4.514615,0.208444 -5.491127,0.301381 l -0.208157,0.01981 -0.02629,0.363548 c -0.03353,0.463589 -0.03302,2.889356 6.65e-4,3.171842 0.02359,0.197832 0.0305,0.21249 0.09304,0.197424 0.03716,-0.0089 0.320767,-0.06588 0.630242,-0.126505 z M 33.373733,19.912334 c 0.657549,-0.716186 1.07676,-1.305535 1.412923,-1.986357 0.403387,-0.816979 0.565327,-1.483302 0.565996,-2.328883 0.0011,-1.36844 -0.512207,-2.601318 -1.490182,-3.579291 -0.413631,-0.41363 -0.804014,-0.696883 -1.330089,-0.965076 -0.652259,-0.332522 -1.343416,-0.516695 -2.116345,-0.563945 l -0.289157,-0.01768 3.2e-5,0.132515 c 6.2e-5,0.239816 0.134176,1.296772 0.204223,1.609558 0.01234,0.05511 0.03761,0.07038 0.116751,0.07056 0.262509,5.69e-4 0.871551,0.190047 1.310919,0.407838 1.139168,0.564671 1.930191,1.502969 2.236703,2.653134 0.06974,0.261695 0.08013,0.366013 0.08277,0.830701 0.0023,0.404868 -0.01054,0.5947 -0.05388,0.797135 -0.212657,0.993216 -0.768138,1.851849 -1.519526,2.348815 -0.170875,0.113016 -0.247209,0.181841 -0.237349,0.214002 0.02339,0.07631 0.194344,0.812458 0.23442,1.009437 l 0.03672,0.180525 0.26624,-0.24171 c 0.146432,-0.132941 0.402403,-0.390016 0.568826,-0.571277 z m -1.14411,-1.546832 c 0.614753,-0.523731 1.008619,-1.471503 0.950972,-2.288357 -0.074,-1.048572 -0.729969,-1.987687 -1.759985,-2.51967 -0.268953,-0.138908 -0.847387,-0.355277 -0.875263,-0.3274 -0.02298,0.02298 0.349763,1.445316 0.661267,2.52332 0.446828,1.546311 0.795876,2.763522 0.795876,2.775394 0,0.01978 0.07847,-0.03664 0.227133,-0.163287 z M 9.1200412,16.533628 c 0.455617,-0.01667 1.4374188,-0.03957 2.1817808,-0.05089 1.100357,-0.01673 1.350432,-0.02828 1.337586,-0.06175 -0.02613,-0.0681 -0.383764,-0.591869 -0.733312,-1.073971 -0.909807,-1.254822 -2.5232828,-3.814683 -3.9554258,-6.2754849 -0.202623,-0.34816 -0.383423,-0.633019 -0.401777,-0.633019 -0.01835,0 -0.255229,0.04955 -0.526388,0.110104 -0.64394,0.14381 -1.315052,0.25464 -1.805951,0.298242 -0.612816,0.05443 -0.591298,0.0098 -0.200712,0.416112 0.815906,0.8487149 1.38807,1.7085179 1.697064,2.5502159 0.101548,0.276616 0.24267,0.811236 0.326315,1.236202 0.08065,0.409745 0.549072,3.362779 0.549072,3.461466 v 0.09108 l 0.351677,-0.019 c 0.193422,-0.01045 0.724454,-0.03264 1.180071,-0.04931 z M 21.436551,9.6582311 c 3.945815,-0.172221 7.273539,-0.321123 7.39494,-0.330894 l 0.220731,-0.01776 0.03677,-0.302674 c 0.05834,-0.480197 0.07468,-0.799363 0.04328,-0.845138 -0.02098,-0.03058 -0.04529,-0.03372 -0.08771,-0.01134 -0.03227,0.01703 -0.417392,0.102551 -0.855816,0.190046 -4.702047,0.938376 -9.24557,1.146804 -13.655852,0.626443 -0.298214,-0.03519 -0.546247,-0.05945 -0.551183,-0.05392 -0.0049,0.0055 0.01,0.214027 0.03319,0.463327 0.02319,0.2493 0.04263,0.484924 0.0432,0.5236081 8.66e-4,0.05818 0.0186,0.07043 0.102642,0.07088 0.05588,3.13e-4 3.32999,-0.1403591 7.275806,-0.3125801 z m -0.672094,-1.34544 c 2.163329,-0.08668 4.13599,-0.301049 6.24422,-0.678568 0.51078,-0.09146 0.648588,-0.126304 0.648362,-0.163909 -4.51e-4,-0.07466 -0.313648,-0.704084 -0.513666,-1.032287 -0.752522,-1.234791 -1.9582,-2.296057 -3.268684,-2.877172 -0.935276,-0.414734 -1.802744,-0.599974 -2.813261,-0.600744 -0.643746,-4.92e-4 -1.035904,0.04743 -1.619577,0.197928 -2.073427,0.534611 -3.884053,2.152829 -4.647521,4.153649 -0.09777,0.256236 -0.241253,0.724657 -0.226475,0.73938 0.0039,0.0039 0.204026,0.0294 0.444729,0.0567 1.76711,0.200423 3.936633,0.277756 5.751873,0.205026 z m 0.348255,-6.297673 c 0.01961,-0.0064 0.07337,-0.08869 0.119459,-0.182904 C 21.51942,1.2450981 21.03428,0.70177386 20.478904,0.98860506 20.154855,1.1559641 20.130145,1.6834861 20.433384,1.9604611 c 0.08908,0.08137 0.10627,0.0849 0.368558,0.07581 0.151316,-0.0053 0.291165,-0.01476 0.310774,-0.02115 z"
     id="path14858"
     inkscape:connector-curvature="0" />
</svg>
