<?xml version="1.0" encoding="UTF-8" standalone="no"?>
<!-- Created with Inkscape (http://www.inkscape.org/) -->

<svg
   xmlns:dc="http://purl.org/dc/elements/1.1/"
   xmlns:cc="http://creativecommons.org/ns#"
   xmlns:rdf="http://www.w3.org/1999/02/22-rdf-syntax-ns#"
   xmlns:svg="http://www.w3.org/2000/svg"
   xmlns="http://www.w3.org/2000/svg"
   xmlns:sodipodi="http://sodipodi.sourceforge.net/DTD/sodipodi-0.dtd"
   xmlns:inkscape="http://www.inkscape.org/namespaces/inkscape"
   version="1.1"
   id="svg8728"
   width="64.292999"
   height="31.958143"
   viewBox="0 0 64.292999 31.958143"
   sodipodi:docname="divan.svg"
   inkscape:version="0.92.4 (5da689c313, 2019-01-14)">
  <metadata
     id="metadata8734">
    <rdf:RDF>
      <cc:Work
         rdf:about="">
        <dc:format>image/svg+xml</dc:format>
        <dc:type
           rdf:resource="http://purl.org/dc/dcmitype/StillImage" />
        <dc:title></dc:title>
      </cc:Work>
    </rdf:RDF>
  </metadata>
  <defs
     id="defs8732" />
  <sodipodi:namedview
     pagecolor="#ffffff"
     bordercolor="#666666"
     borderopacity="1"
     objecttolerance="10"
     gridtolerance="10"
     guidetolerance="10"
     inkscape:pageopacity="0"
     inkscape:pageshadow="2"
     inkscape:window-width="1920"
     inkscape:window-height="1017"
     id="namedview8730"
     showgrid="false"
     inkscape:zoom="5.9104413"
     inkscape:cx="1.691921"
     inkscape:cy="15.979072"
     inkscape:window-x="-8"
     inkscape:window-y="-8"
     inkscape:window-maximized="1"
     inkscape:current-layer="svg8728" />
  <path
     style="fill:#000000;stroke-width:0.06278613"
     d="m 12.340945,32.249657 c -2.13638,-0.244443 -4.3008677,-0.128096 -6.4512754,-0.17288 -0.012351,-1.276652 -0.024703,-2.553303 -0.037054,-3.829955 -2.5065068,-1.586546 -4.787055,-3.853213 -5.99876767,-6.566169 0.0994407,-4.057437 0.14503436,-8.116499 0.10625531,-12.1754916 1.46842466,0 2.93684926,0 4.40527396,0 C 3.8508148,6.521763 4.2530604,3.0002385 6.5076957,0.79555295 c 2.3246822,-0.84013096 5.0468543,0.002045 7.5411503,-0.27362883 5.582426,0.0362973 11.168713,-0.0594848 16.748612,0.0754983 2.426012,0.59971096 4.928532,-0.7737384 7.542519,-0.25121538 6.177346,0.004001 12.354683,0.015726 18.532025,0.0235714 1.891986,1.19668416 2.757506,3.70363296 2.625424,5.89081796 0.380564,1.2536509 -0.818006,3.6855163 1.29575,3.056206 1.110208,0 2.220415,0 3.330622,0 0,4.6227186 0,9.2454366 0,13.8681556 -1.446415,1.434414 -2.697236,3.791541 -4.847233,4.772808 -1.258492,0.250188 -1.099637,1.320671 -1.066483,2.325561 -0.18213,0.724279 0.4879,2.312164 -0.737338,1.979322 -2.572569,-0.07487 -5.208378,0.05978 -7.737208,-0.32201 -0.107631,-1.340936 -0.02943,-2.693352 -0.05255,-4.039141 -11.699147,0 -23.398295,0 -35.097442,0 0.0062,1.465452 -0.04639,2.93023 -0.08289,4.395029 -0.720629,-0.01292 -1.441253,-0.02651 -2.161718,-0.04687 z M 55.333749,28.43518 c -0.435027,-1.832834 2.177891,-1.421657 2.999294,-2.541024 1.04356,-0.905121 3.051267,-1.709439 2.931874,-3.325208 -0.01021,-3.454662 -0.02041,-6.909323 -0.03062,-10.363984 -2.197064,0 -4.394127,0 -6.591191,0 -3.4e-4,1.888656 -0.134505,3.756192 0.04114,5.643265 -0.629552,0.994723 0.633324,3.615247 -1.234371,3.131054 -14.563522,0.09439 -29.127492,0.09924 -43.6909745,-0.005 0.024999,-2.860329 0.049997,-5.720657 0.074997,-8.580986 -2.3021294,0 -4.6042588,0 -6.9063882,0 -0.00608,3.109052 -0.1954872,6.240967 -0.1743135,9.333946 0.2375336,0.958812 0.6494741,1.814106 1.4595775,2.417963 1.1141979,1.813192 3.8763604,2.103422 4.541991,3.781183 -0.3776143,1.291735 0.3544062,1.473635 1.4637607,1.293596 1.765314,0.505835 1.677947,-0.867142 1.534648,-2.323087 -0.37654,-1.454446 0.692032,-1.384515 1.827911,-1.258156 9.296622,-0.238189 18.610226,-0.08202 27.914502,-0.123139 3.691873,0 7.383747,0 11.07562,0 0,1.25466 0,2.50932 0,3.76398 0.980971,-0.214555 3.158056,0.817282 2.762542,-0.795357 z M 31.45579,18.405095 c -0.219556,-1.147604 0.06529,-2.766273 -0.337475,-3.688686 -6.306212,0 -12.612424,0 -18.918636,0 0,1.318509 0,2.637018 0,3.955527 6.430804,0 12.861607,0 19.292411,0 l -0.01935,-0.142244 z m 20.945602,0.202408 c -0.641375,-1.220279 1.282516,-4.47559 -1.037131,-3.891094 -5.981453,0 -11.962905,0 -17.944358,0 0.692328,1.13999 -1.046465,4.272651 0.856494,3.968275 6.041644,-0.0231 12.083729,-0.01091 18.124995,-0.07718 z M 31.199198,11.728932 C 31.134268,9.1119456 31.170593,6.4934217 31.161088,3.8757284 29.921487,3.033652 28.354951,3.5599696 26.948936,3.4144235 20.461761,3.4145855 13.974586,3.414745 7.4874115,3.4149044 5.8176025,4.970262 6.5723219,7.4704395 6.5043476,9.5051604 c 1.8984428,0 3.7968854,0 5.6953284,0 0.109588,0.7126256 -0.206125,1.8505526 0.143554,2.3230866 6.283791,-0.04182 12.582808,0.101188 18.855968,-0.09931 z m 21.246388,-1.156408 c -0.318818,-1.2159069 0.349493,-1.444685 1.435545,-1.2557226 1.151293,0 2.302586,0 3.453879,0 -0.30237,-1.921098 0.940114,-4.8349188 -1.006575,-6.0413335 -7.34442,-0.085755 -14.689828,-0.035412 -22.034703,-0.048923 -2.035819,0.3866934 -0.606354,2.7958849 -0.967594,4.2389435 0.01871,1.4542381 0.03505,2.9085061 0.0527,4.3627571 6.355584,0 12.711169,0 19.066753,0 -2e-6,-0.418574 -3e-6,-0.837148 -5e-6,-1.255722 z"
     id="path8740"
     inkscape:connector-curvature="0" />
</svg>
