<?xml version="1.0" encoding="UTF-8" standalone="no"?>
<!-- Generated by IcoMoon.io -->

<svg
   xmlns:dc="http://purl.org/dc/elements/1.1/"
   xmlns:cc="http://creativecommons.org/ns#"
   xmlns:rdf="http://www.w3.org/1999/02/22-rdf-syntax-ns#"
   xmlns:svg="http://www.w3.org/2000/svg"
   xmlns="http://www.w3.org/2000/svg"
   xmlns:sodipodi="http://sodipodi.sourceforge.net/DTD/sodipodi-0.dtd"
   xmlns:inkscape="http://www.inkscape.org/namespaces/inkscape"
   version="1.1"
   width="35"
   height="32"
   viewBox="0 0 35 32"
   id="svg7341"
   sodipodi:docname="dom.svg"
   inkscape:version="0.92.4 (5da689c313, 2019-01-14)">
  <metadata
     id="metadata7347">
    <rdf:RDF>
      <cc:Work
         rdf:about="">
        <dc:format>image/svg+xml</dc:format>
        <dc:type
           rdf:resource="http://purl.org/dc/dcmitype/StillImage" />
      </cc:Work>
    </rdf:RDF>
  </metadata>
  <defs
     id="defs7345" />
  <sodipodi:namedview
     pagecolor="#ffffff"
     bordercolor="#666666"
     borderopacity="1"
     objecttolerance="10"
     gridtolerance="10"
     guidetolerance="10"
     inkscape:pageopacity="0"
     inkscape:pageshadow="2"
     inkscape:window-width="1920"
     inkscape:window-height="1017"
     id="namedview7343"
     showgrid="false"
     inkscape:zoom="7.375"
     inkscape:cx="17.5"
     inkscape:cy="16"
     inkscape:window-x="-8"
     inkscape:window-y="-8"
     inkscape:window-maximized="1"
     inkscape:current-layer="svg7341" />
  <title
     id="title7299">dom</title>
  <path
     id="path7339"
     style="color:#000000;font-style:normal;font-variant:normal;font-weight:normal;font-stretch:normal;font-size:medium;line-height:normal;font-family:sans-serif;font-variant-ligatures:normal;font-variant-position:normal;font-variant-caps:normal;font-variant-numeric:normal;font-variant-alternates:normal;font-feature-settings:normal;text-indent:0;text-align:start;text-decoration:none;text-decoration-line:none;text-decoration-style:solid;text-decoration-color:#000000;letter-spacing:normal;word-spacing:normal;text-transform:none;writing-mode:lr-tb;direction:ltr;text-orientation:mixed;dominant-baseline:auto;baseline-shift:baseline;text-anchor:start;white-space:normal;shape-padding:0;clip-rule:nonzero;display:inline;overflow:visible;visibility:visible;opacity:1;isolation:auto;mix-blend-mode:normal;color-interpolation:sRGB;color-interpolation-filters:linearRGB;solid-color:#000000;solid-opacity:1;vector-effect:none;fill:#000000;fill-opacity:1;fill-rule:nonzero;stroke:none;stroke-width:1.87909997;stroke-linecap:butt;stroke-linejoin:miter;stroke-miterlimit:10;stroke-dasharray:none;stroke-dashoffset:0;stroke-opacity:1;color-rendering:auto;image-rendering:auto;shape-rendering:auto;text-rendering:auto;enable-background:accumulate"
     d="m 31.927734,29.955078 -27.8535152,0.111328 0.00586,1.878906 27.8554692,-0.111328 z m -1.046875,-1.382812 v 3.207031 h 1.878907 V 28.572266 Z M 2.9160156,28.683594 V 32 H 4.7949219 V 28.683594 Z M 24.789062,0.22265625 l -0.08398,1.87695315 4.97461,0.2207031 0.08398,-1.87695312 z m 4.103516,0.12304687 -0.441406,10.16992188 1.876953,0.08203 0.441406,-10.16992162 z m -4.970703,-0.265625 -0.552734,5.96874998 1.871093,0.171875 0.552735,-5.96874998 z m 9.722656,13.51757788 -4.421875,3.757813 1.21875,1.43164 4.419922,-3.757812 z m -2.652343,4.021485 -1.878907,0.02148 0.109375,10.058594 1.878906,-0.02148 z M 18.292969,5.6523438 17.050781,7.0605469 30.205078,18.666016 31.447266,17.257812 Z m -2.246094,-0.6777344 -0.06641,1.8789062 3.095703,0.1113282 0.06641,-1.8789063 z M 19.076172,0.35351562 17.816406,1.7480469 32.738281,15.232422 33.998047,13.837891 Z M 16.248047,0.26171875 0,15.847656 1.3007812,17.203125 17.548828,1.6171875 Z M 16.013672,0 v 1.8789062 h 3.427734 V 0 Z M 1.5722656,14.798828 0.39257812,16.261719 4.3710938,19.466797 5.5507812,18.003906 Z m 2.5585938,2.5 V 27.578125 H 6.0097656 V 17.298828 Z M 32.8125,27.300781 2.8574219,27.412109 l 0.00781,1.878907 29.9550771,-0.111328 z m -19.216797,-9.0625 -0.02539,1.878907 8.06836,0.111328 0.02539,-1.878907 z m 7.447266,0.166016 v 10.722656 h 1.878906 V 18.404297 Z m -8.509766,-0.220703 v 10.832031 h 1.878906 V 18.183594 Z M 17.056641,5.6464844 3.5703125,17.363281 4.8027344,18.78125 18.289062,7.0644531 Z" />
</svg>
