<?xml version="1.0" encoding="UTF-8" standalone="no"?>
<!-- Created with Inkscape (http://www.inkscape.org/) -->

<svg
   xmlns:dc="http://purl.org/dc/elements/1.1/"
   xmlns:cc="http://creativecommons.org/ns#"
   xmlns:rdf="http://www.w3.org/1999/02/22-rdf-syntax-ns#"
   xmlns:svg="http://www.w3.org/2000/svg"
   xmlns="http://www.w3.org/2000/svg"
   xmlns:sodipodi="http://sodipodi.sourceforge.net/DTD/sodipodi-0.dtd"
   xmlns:inkscape="http://www.inkscape.org/namespaces/inkscape"
   version="1.1"
   id="svg12832"
   width="30.760014"
   height="32.010422"
   viewBox="0 0 30.760014 32.010422"
   sodipodi:docname="kaktus-3.svg"
   inkscape:version="0.92.4 (5da689c313, 2019-01-14)">
  <metadata
     id="metadata12838">
    <rdf:RDF>
      <cc:Work
         rdf:about="">
        <dc:format>image/svg+xml</dc:format>
        <dc:type
           rdf:resource="http://purl.org/dc/dcmitype/StillImage" />
        <dc:title></dc:title>
      </cc:Work>
    </rdf:RDF>
  </metadata>
  <defs
     id="defs12836" />
  <sodipodi:namedview
     pagecolor="#ffffff"
     bordercolor="#666666"
     borderopacity="1"
     objecttolerance="10"
     gridtolerance="10"
     guidetolerance="10"
     inkscape:pageopacity="0"
     inkscape:pageshadow="2"
     inkscape:window-width="1920"
     inkscape:window-height="1017"
     id="namedview12834"
     showgrid="false"
     inkscape:zoom="7.3725989"
     inkscape:cx="15.380007"
     inkscape:cy="16.005211"
     inkscape:window-x="-8"
     inkscape:window-y="-8"
     inkscape:window-maximized="1"
     inkscape:current-layer="svg12832" />
  <path
     style="fill:#000000;stroke-width:0.03126018"
     d="M 8.8572263,32.083367 C 7.8366932,30.888355 7.4496685,29.276712 6.7150986,27.898044 5.4820713,25.070111 4.0840315,22.305246 2.980759,19.426226 3.4715039,18.032248 6.4344173,19.790932 5.553463,17.696918 5.4358765,16.486794 3.3087444,17.817159 2.6364533,16.611127 2.0637247,16.17685 0.7568725,18.381748 0.64472535,16.839139 1.469478,16.472574 2.4248471,15.101365 0.94840435,15.056683 -0.54788023,15.070556 0.59509469,13.997665 1.3126547,14.129764 1.1813132,11.854445 3.4647563,9.9012933 5.6943616,10.363642 6.4721209,9.7199685 6.4929674,8.0701416 7.2402755,7.1677003 9.1132221,3.6705757 12.970267,1.1770596 17.007639,1.5307962 c 1.579377,0.09419 3.077761,0.7199009 4.372443,1.6058341 0.650854,-1.0087688 1.654028,-1.4487313 1.303696,-2.79531724 1.044822,-0.89124724 0.646585,2.51640524 1.548147,0.92364534 -0.08863,-1.35600168 1.466405,-1.0247588 0.802026,0.1796999 -0.43578,1.0166378 1.546793,1.5122849 1.045737,2.7971045 0.32115,1.3465528 -1.619471,1.861722 -1.699784,2.6227167 0.69769,1.3702384 1.096769,2.86347 1.403507,4.3615425 1.507851,-0.402267 3.289069,0.330093 3.866107,1.838712 0.814708,-0.580641 1.866852,0.48104 0.542788,0.762515 -0.831026,0.322509 -0.287095,1.882712 -1.261676,2.355534 -0.873834,1.360233 -3.479494,0.05018 -2.95861,2.093519 -0.345248,1.453058 3.351624,0.03978 1.977166,2.24734 -1.565083,3.765344 -3.078867,7.562077 -4.724566,11.288007 -1.358766,0.490884 -2.940794,0.01957 -4.380512,0.191984 -3.324145,-0.0478 -6.686843,0.221929 -9.9868817,0.07973 z m 5.7049827,-1.378222 c 2.575263,-0.04279 5.151073,-0.03459 7.726365,-0.06989 1.084813,-2.574404 2.158018,-5.153848 3.220007,-7.737753 -1.333149,-0.258967 -3.010348,-0.0536 -4.477941,-0.124542 -5.026095,0.01396 -10.054454,-0.05153 -15.0790907,0.04009 1.1059693,2.687943 2.3496002,5.32597 3.568378,7.964876 1.6807847,-0.02252 3.3615597,-0.04631 5.0422817,-0.07279 z m 11.469206,-9.070321 c 0.608033,-0.884077 0.574546,-1.562811 -0.631461,-1.288625 -6.875578,-0.01856 -13.754309,-0.190998 -20.6276767,-0.138106 0.1093075,2.074719 2.2163798,1.395719 3.652076,1.492657 5.8539987,0.0077 11.7080057,0.0032 17.5620087,0.0044 z m -4.84043,-2.693509 C 21.611615,13.553659 20.006622,7.9888591 16.838123,3.6003021 16.056669,2.240791 14.649857,2.345551 13.955148,3.6984476 12.107687,6.0509937 11.454582,9.0683565 10.693837,11.89743 c -0.492234,2.270287 -0.8588795,4.595783 -0.8619897,6.918436 3.7093257,0.128968 7.4276777,0.09567 11.1405587,0.164426 l 0.2186,-0.03898 z m -5.713923,-5.611711 c -0.0844,-0.890826 -0.116152,-1.720164 -1.400316,-1.26458 -1.367963,-1.156904 1.633836,-0.361833 1.269831,-1.341107 -0.577823,-1.0359207 0.926115,-1.6562239 0.801022,-0.357548 -0.570916,1.417722 2.307335,0.24168 1.364113,1.557963 -1.024213,-0.212375 -1.528741,0.122918 -1.347245,1.12215 0.04419,0.326679 -0.468744,0.501586 -0.687405,0.283122 z m 9.650028,5.616845 C 25.324874,14.609617 25.491926,9.8680671 22.986245,6.0940874 21.635651,4.005357 19.314474,2.3468781 16.766053,2.3523133 c 2.420408,2.6179354 3.808731,6.0483989 4.668563,9.4681037 0.582293,2.329726 0.67332,4.736942 0.655971,7.126032 1.007732,0.05985 2.028878,0.06116 3.036503,0 z M 8.9442373,18.821408 C 9.2202179,14.05265 10.13331,9.2476138 12.213228,4.9187797 12.318564,4.1920561 14.580957,2.181587 12.78358,3.0414708 8.3143185,5.0131196 6.0791977,10.108337 6.1849495,14.790408 c 0.037484,1.32808 -0.013508,2.870355 0.4902493,4.029978 0.7538751,0.0078 1.5180616,0.07233 2.2690385,0.001 z m -3.900752,-2.456961 c 0.7672501,-0.42972 0.059444,-1.756296 0.346645,-2.528501 -0.086151,-1.110379 1.0377683,-3.291712 -0.964895,-2.647051 -1.9142329,0.312862 -3.0149283,2.836019 -1.7116455,4.360909 0.533693,0.722391 1.4542597,1.084594 2.3298955,0.814643 z M 26.964949,16.188848 c 2.191905,0.05345 2.78807,-3.25448 0.770872,-4.040438 -1.006031,-0.584803 -2.372436,-0.09628 -1.755067,1.234564 0.217081,0.857289 -0.233448,2.097164 0.249318,2.75588 0.221243,0.153744 0.492538,0.03793 0.734877,0.04999 z M 24.079748,5.7493323 C 25.875474,5.307097 25.529087,2.3771578 23.627235,2.5002131 22.440297,2.2469499 21.636599,3.8763784 22.763954,4.4693652 c 0.473638,0.2325472 0.728806,1.5056424 1.315794,1.2799671 z"
     id="path12842"
     inkscape:connector-curvature="0" />
</svg>
