<?xml version="1.0" encoding="UTF-8" standalone="no"?>
<!-- Created with Inkscape (http://www.inkscape.org/) -->

<svg
   xmlns:dc="http://purl.org/dc/elements/1.1/"
   xmlns:cc="http://creativecommons.org/ns#"
   xmlns:rdf="http://www.w3.org/1999/02/22-rdf-syntax-ns#"
   xmlns:svg="http://www.w3.org/2000/svg"
   xmlns="http://www.w3.org/2000/svg"
   xmlns:sodipodi="http://sodipodi.sourceforge.net/DTD/sodipodi-0.dtd"
   xmlns:inkscape="http://www.inkscape.org/namespaces/inkscape"
   version="1.1"
   id="svg13691"
   width="21.444481"
   height="32.010422"
   viewBox="0 0 21.444481 32.010422"
   sodipodi:docname="karamel.svg"
   inkscape:version="0.92.4 (5da689c313, 2019-01-14)">
  <metadata
     id="metadata13697">
    <rdf:RDF>
      <cc:Work
         rdf:about="">
        <dc:format>image/svg+xml</dc:format>
        <dc:type
           rdf:resource="http://purl.org/dc/dcmitype/StillImage" />
        <dc:title></dc:title>
      </cc:Work>
    </rdf:RDF>
  </metadata>
  <defs
     id="defs13695" />
  <sodipodi:namedview
     pagecolor="#ffffff"
     bordercolor="#666666"
     borderopacity="1"
     objecttolerance="10"
     gridtolerance="10"
     guidetolerance="10"
     inkscape:pageopacity="0"
     inkscape:pageshadow="2"
     inkscape:window-width="1920"
     inkscape:window-height="1017"
     id="namedview13693"
     showgrid="false"
     inkscape:zoom="7.3725989"
     inkscape:cx="10.72224"
     inkscape:cy="16.005211"
     inkscape:window-x="-8"
     inkscape:window-y="-8"
     inkscape:window-maximized="1"
     inkscape:current-layer="svg13691" />
  <path
     style="fill:#000000;stroke-width:0.03126018"
     d="M 16.866201,32.247251 C 15.923919,32.119835 14.998946,31.668047 14.405909,31.045561 14.30275,30.93728 13.015612,29.69837 11.545602,28.292428 7.2014077,24.137568 6.4321707,23.374891 5.2817647,22.082008 3.2886297,19.842022 1.9876617,17.831403 1.1511127,15.698173 0.16593969,13.185943 -0.10252231,10.722065 0.35749569,8.4145507 c 0.111128,-0.557436 0.417815,-1.45132 0.69713801,-2.031911 0.488305,-1.014973 1.090234,-1.836602 1.992987,-2.720413 1.158053,-1.133755 2.477611,-1.988102 3.996516,-2.587542 2.111262,-0.83321499 4.2423183,-1.01823899 6.1965443,-0.53799899 1.851531,0.455002 3.533718,1.50908799 4.615055,2.89186699 0.141172,0.180528 0.350016,0.445705 0.464096,0.589283 0.75635,0.951921 1.158089,1.927676 1.26186,3.064843 0.175182,1.919713 -0.97382,3.8645723 -2.632569,4.4560163 -0.717676,0.255895 -1.618209,0.27606 -2.251011,0.0504 -0.331646,-0.118264 -0.8273,-0.336698 -1.004251,-0.442572 -0.374402,-0.224009 -0.729644,-0.584673 -0.929112,-0.94329 -0.06965,-0.125214 -0.234384,-0.3224413 -0.453272,-0.5426653 -0.284627,-0.286363 -0.38425,-0.365201 -0.578314,-0.457659 -0.583606,-0.278047 -1.22006,-0.272937 -1.8130903,0.01456 -0.329299,0.15964 -0.68554,0.500363 -0.95341,0.9118783 -0.217245,0.333743 -0.611857,1.095077 -0.690955,1.333076 -0.07922,0.238367 -0.08068,0.67349 -0.0027,0.792562 0.03116,0.04755 0.452671,0.518182 0.936697,1.045842 3.6943043,4.027341 7.3329523,7.903477 10.7673153,11.470075 0.476013,0.494342 0.848065,0.907233 0.887298,0.984696 0.03716,0.07337 0.112318,0.183287 0.167017,0.244264 0.0547,0.06098 0.151513,0.240935 0.21514,0.399906 0.490487,1.225472 0.429973,2.558438 -0.169105,3.724981 -0.542018,1.055433 -1.54919,1.806763 -2.763975,2.061871 -0.365955,0.07685 -1.099889,0.107601 -1.44723,0.06063 z m 1.27596,-1.557137 c 0.454139,-0.120375 0.789395,-0.310056 1.114136,-0.630353 0.347979,-0.343217 0.557193,-0.702592 0.717401,-1.232314 0.07566,-0.250156 0.08533,-0.333317 0.08724,-0.750244 0.0018,-0.394733 -0.0087,-0.505987 -0.06638,-0.703354 -0.165044,-0.564662 -0.167613,-0.568262 -1.101839,-1.544073 -0.470862,-0.491821 -0.863188,-0.894221 -0.871836,-0.894221 -0.02579,0 -0.466971,0.308169 -0.79682,0.556586 -0.999157,0.75249 -2.038345,1.787265 -2.804712,2.792798 l -0.288886,0.379042 0.794184,0.778593 c 0.588059,0.576514 0.857487,0.818039 1.03809,0.930578 0.259328,0.161593 0.718538,0.328178 1.03776,0.376461 0.284545,0.04304 0.869908,0.01253 1.141658,-0.0595 z m -4.48652,-3.862218 c 0.786886,-0.947105 1.936891,-2.017954 2.973161,-2.768519 0.17005,-0.123165 0.309181,-0.234278 0.309181,-0.246917 0,-0.01264 -0.472012,-0.52122 -1.048916,-1.130177 -0.576904,-0.608958 -1.405348,-1.487008 -1.840987,-1.951222 -0.435638,-0.464213 -0.824432,-0.87807 -0.863985,-0.919681 l -0.07192,-0.07566 -0.180331,0.153806 c -0.302031,0.257607 -0.917682,0.865069 -1.198684,1.182741 -0.192007,0.217064 -0.309478,0.321381 -0.423495,0.376076 -0.309833,0.148628 -1.242405,1.303935 -1.8287843,2.265572 l -0.198629,0.325743 0.18866,0.17442 c 0.103764,0.09593 0.8344533,0.793372 1.6237533,1.549868 0.789301,0.756496 1.547484,1.483014 1.684852,1.614483 l 0.24976,0.239035 0.156891,-0.206674 c 0.08629,-0.113671 0.297552,-0.375975 0.46947,-0.582898 z M 8.4413737,22.520707 c 0.322415,-0.490954 0.736014,-1.040372 1.116217,-1.482761 0.4473003,-0.520461 1.0875143,-1.171538 1.2392933,-1.26032 0.07348,-0.04298 0.310688,-0.248644 0.527126,-0.457026 0.306636,-0.295222 0.653039,-0.61278 0.744984,-0.682948 0.0042,-0.0032 -0.128286,-0.152429 -0.294367,-0.331643 -0.16608,-0.179214 -0.808168,-0.874459 -1.426861,-1.54499 C 9.7290727,16.090488 9.1768927,15.493997 9.1206987,15.435482 l -0.102171,-0.106389 -0.244766,0.151939 c -0.711847,0.44188 -1.243529,0.868745 -1.903664,1.528371 -0.613109,0.612636 -0.94813,1.020087 -1.405634,1.709523 -0.178356,0.268774 -0.362431,0.516467 -0.409054,0.55043 l -0.08477,0.06175 0.216169,0.277754 c 0.69997,0.89939 1.484049,1.786739 2.44861,2.771111 0.282223,0.28802 0.522434,0.523672 0.533804,0.523672 0.01137,0 0.133837,-0.172322 0.272151,-0.382937 z m -3.842547,-5.212635 c 0.814963,-1.101665 1.795076,-2.038857 2.961477,-2.831787 l 0.417886,-0.284083 -0.483065,-0.528682 c -0.265686,-0.290775 -0.52711,-0.606051 -0.580943,-0.700613 -0.05383,-0.09456 -0.145237,-0.258363 -0.203119,-0.364002 -0.07805,-0.142442 -0.127367,-0.197517 -0.190871,-0.213146 -0.0471,-0.01159 -0.191208,-0.08273 -0.320249,-0.158093 -1.076133,-0.62847 -2.236112,-0.952808 -3.407671,-0.952808 -0.433153,0 -1.023302,0.05032 -1.092623,0.09316 -0.07404,0.04576 0.08104,1.128842 0.280212,1.956999 0.365029,1.517779 1.05727,3.105579 1.992783,4.570871 l 0.105858,0.165805 0.127194,-0.197065 c 0.06996,-0.108386 0.246866,-0.358837 0.393131,-0.556556 z m 2.334157,-6.525562 c 0.0344,-0.143087 0.468395,-1.0050263 0.657142,-1.3051133 0.09733,-0.154737 0.238017,-0.360507 0.312646,-0.457265 0.113631,-0.147326 0.142022,-0.213388 0.174643,-0.406383 0.04883,-0.288916 0.04907,-0.282589 -0.02639,-0.714991 -0.128109,-0.73407 -0.278241,-1.185402 -0.602219,-1.810418 -0.435891,-0.840915 -1.099277,-1.588505 -1.880876,-2.119614 l -0.303958,-0.206542 -0.289989,0.22103 c -1.471771,1.121784 -2.544731,2.611167 -2.946477,4.090028 -0.04633,0.170527 -0.103799,0.366317 -0.127719,0.43509 -0.07841,0.225431 -0.254941,1.285177 -0.219919,1.320199 0.0053,0.0053 0.184016,-0.0065 0.397145,-0.02627 0.474914,-0.044 1.417367,-0.01822 1.872366,0.05122 0.922924,0.140859 1.702768,0.3874763 2.483757,0.7854613 0.241488,0.12306 0.448095,0.225047 0.459126,0.226637 0.01103,0.0016 0.02936,-0.03579 0.04072,-0.08308 z m 9.0383193,-0.573152 c 0.543105,-0.05394 0.890566,-0.2199833 1.252241,-0.5984173 0.550173,-0.575668 0.856556,-1.336187 0.857828,-2.129346 6.47e-4,-0.402965 -0.05267,-0.705055 -0.205811,-1.166206 -0.184703,-0.556179 -0.423936,-0.978356 -0.794451,-1.401978 -0.105264,-0.120351 -0.232014,-0.289156 -0.281667,-0.375122 -0.123272,-0.213424 -0.530812,-0.671603 -0.839849,-0.944205 -0.298245,-0.263083 -0.596251,-0.492552 -0.615137,-0.473666 -0.0073,0.0073 -0.03599,0.167503 -0.06381,0.356058 -0.246408,1.670088 -1.008381,3.284671 -2.138827,4.532074 l -0.187545,0.206948 0.294386,0.281435 c 0.161912,0.15479 0.343773,0.35584 0.404135,0.446779 0.06036,0.09094 0.146004,0.189099 0.190315,0.218133 0.04431,0.02903 0.141005,0.147078 0.214874,0.262321 0.146931,0.229227 0.284742,0.3639 0.503665,0.492197 0.227387,0.1332583 0.789181,0.3176993 0.987643,0.3242503 0.04429,0.0015 0.2342,-0.0126 0.422012,-0.03126 z M 9.7391847,7.6517587 c 0.4151763,-0.142842 1.0689343,-0.196771 1.5258843,-0.125873 l 0.215974,0.03351 0.278549,-0.291406 c 0.631922,-0.661089 1.013225,-1.196254 1.365809,-1.916936 0.446544,-0.912735 0.692204,-1.857083 0.710883,-2.732723 l 0.0069,-0.325407 -0.265711,-0.09087 c -0.399278,-0.136552 -0.783133,-0.233305 -1.234736,-0.31123 -0.552593,-0.09535 -1.924008,-0.103696 -2.4851843,-0.01512 -0.786982,0.124214 -1.599417,0.345494 -2.279418,0.620838 -0.502316,0.203395 -0.893474,0.398655 -0.858343,0.428471 0.01506,0.01278 0.13991,0.115845 0.277454,0.229039 0.502166,0.413262 0.985066,0.960855 1.399893,1.587431 0.460666,0.695815 0.89482,1.74425 1.054997,2.547705 0.07651,0.38379 0.0858,0.422012 0.10257,0.422012 0.0064,0 0.08946,-0.02675 0.184479,-0.05944 z"
     id="path13701"
     inkscape:connector-curvature="0" />
</svg>
