<?xml version="1.0" encoding="UTF-8" standalone="no"?>
<!-- Created with Inkscape (http://www.inkscape.org/) -->

<svg
   xmlns:dc="http://purl.org/dc/elements/1.1/"
   xmlns:cc="http://creativecommons.org/ns#"
   xmlns:rdf="http://www.w3.org/1999/02/22-rdf-syntax-ns#"
   xmlns:svg="http://www.w3.org/2000/svg"
   xmlns="http://www.w3.org/2000/svg"
   xmlns:sodipodi="http://sodipodi.sourceforge.net/DTD/sodipodi-0.dtd"
   xmlns:inkscape="http://www.inkscape.org/namespaces/inkscape"
   version="1.1"
   id="svg11877"
   width="35.773289"
   height="32.020847"
   viewBox="0 0 35.773289 32.020847"
   sodipodi:docname="krovat.svg"
   inkscape:version="0.92.4 (5da689c313, 2019-01-14)">
  <metadata
     id="metadata11883">
    <rdf:RDF>
      <cc:Work
         rdf:about="">
        <dc:format>image/svg+xml</dc:format>
        <dc:type
           rdf:resource="http://purl.org/dc/dcmitype/StillImage" />
        <dc:title></dc:title>
      </cc:Work>
    </rdf:RDF>
  </metadata>
  <defs
     id="defs11881" />
  <sodipodi:namedview
     pagecolor="#ffffff"
     bordercolor="#666666"
     borderopacity="1"
     objecttolerance="10"
     gridtolerance="10"
     guidetolerance="10"
     inkscape:pageopacity="0"
     inkscape:pageshadow="2"
     inkscape:window-width="1920"
     inkscape:window-height="1017"
     id="namedview11879"
     showgrid="false"
     inkscape:zoom="7.3701985"
     inkscape:cx="17.886644"
     inkscape:cy="16.010424"
     inkscape:window-x="-8"
     inkscape:window-y="-8"
     inkscape:window-maximized="1"
     inkscape:current-layer="svg11877" />
  <path
     style="fill:#000000;stroke-width:0.03127036"
     d="m 1.8555508,32.129357 c 0,-0.01494 -0.144234,-0.03422 -0.320521,-0.04283 -0.40672,-0.01986 -0.61796096,-0.09668 -0.85062696,-0.309321 -0.274984,-0.25132 -0.417842,-0.642524 -0.374508,-1.02555 0.01554,-0.137348 0.0101,-0.203126 -0.01976,-0.239111 -0.03376,-0.04068 -0.05109,-2.515251 -0.096,-13.704457 -0.0706,-17.5924097 -0.07062,-15.5987397 1.42e-4,-15.6172437 0.03223,-0.0084 0.106104,-0.10487 0.164169,-0.21431596 0.1433,-0.27010404 0.404516,-0.52473804 0.67935196,-0.66223304 0.285665,-0.142912 0.509797,-0.18901 0.795713,-0.163657 0.123913,0.01099 1.210312,0.02971 2.414221,0.0416 l 2.188925,0.02162 0.01564,1.485342 0.01564,1.485342 0.515348,0.0086 c 0.333098,0.0056 0.545699,-0.0039 0.601169,-0.02692 0.135353,-0.05607 0.334982,-0.295951 0.449201,-0.539783 0.05763,-0.123026 0.137751,-0.277111 0.178046,-0.34241 0.102279,-0.165743 0.37794,-0.44022 0.558452,-0.556055 0.196148,-0.125867 0.582961,-0.269643 0.797596,-0.296459 0.09279,-0.01159 2.4375892,-0.0041 5.2106682,0.01663 2.773079,0.02074 6.526522,0.04701 8.340985,0.05837 l 3.299022,0.02067 0.17754,0.08719 c 0.228587,0.112253 0.435264,0.336492 0.861333,0.93452 0.184917,0.259549 0.366006,0.491429 0.402419,0.515288 0.05252,0.03441 0.210982,0.04164 0.766529,0.03495 l 0.700323,-0.0084 0.01563,-1.428038 c 0.0086,-0.78541996 0.02267,-1.435055 0.03127,-1.443633 0.0086,-0.0086 1.310228,-0.01916 2.892508,-0.02352 2.859662,-0.0079 2.877621,-0.0075 3.001955,0.05706 0.165686,0.08608 0.278028,0.208648 0.36575,0.399049 0.06771,0.146962 0.07181,0.192033 0.06826,0.750489 -0.0021,0.326775 0.04391,6.982586 0.102192,14.7906907 0.07165,9.599544 0.09566,14.199991 0.07413,14.207166 -0.01751,0.0058 -0.03197,0.104423 -0.03214,0.219081 -4.69e-4,0.3321 -0.116676,0.534729 -0.60748,1.059401 -0.20958,0.224046 -0.454502,0.360825 -0.752474,0.420239 -0.277362,0.0553 -3.863761,0.07412 -3.896933,0.02044 -0.01656,-0.0268 -0.09968,-0.03629 -0.268096,-0.0306 -0.456563,0.01541 -0.83005,-0.146448 -1.027961,-0.44549 -0.135549,-0.204811 -0.213661,-0.50751 -0.192159,-0.744645 0.009,-0.09916 0.0036,-0.188173 -0.01195,-0.197794 -0.01632,-0.01009 -0.0283,-0.724124 -0.0283,-1.686378 0,-1.475474 -0.0057,-1.67458 -0.04914,-1.718024 -0.04449,-0.04449 -1.099578,-0.04914 -11.145325,-0.04914 -6.102902,0 -11.1184442,0.0085 -11.1456482,0.01898 -0.04417,0.01695 -0.04946,0.182835 -0.04946,1.550887 0,1.599158 -0.0036,1.65062 -0.141053,1.994953 -0.02402,0.0602 -0.0653,0.198004 -0.09173,0.306243 -0.10001,0.409588 -0.328238,0.737352 -0.615796,0.88436 -0.29349,0.150038 -0.339734,0.153256 -2.208099,0.15365 -0.975178,3.13e-4 -1.758958,-0.01174 -1.758958,-0.0268 z m 3.087948,-1.64552 c 0.03081,-0.01099 0.03909,-0.522739 0.03909,-2.416491 0,-1.826952 0.009,-2.411534 0.03752,-2.440069 0.02906,-0.02906 2.926162,-0.03752 12.8487712,-0.03752 11.653335,0 12.812963,0.0045 12.830228,0.04946 0.01044,0.0272 0.01898,1.117263 0.01898,2.422352 0,2.314003 0.0015,2.373693 0.06048,2.405261 0.03957,0.02117 0.648479,0.03237 1.760641,0.03237 h 1.700157 l 0.09678,-0.101629 c 0.05323,-0.05589 0.156471,-0.221237 0.229425,-0.367426 l 0.132649,-0.265798 -0.02253,-3.596092 c -0.01239,-1.97785 -0.03473,-3.60871 -0.04964,-3.624134 -0.04338,-0.04487 -33.1338772,0.0193 -33.1789212,0.06435 -0.02742,0.02742 -0.0306,0.977955 -0.01299,3.88344 l 0.02331,3.847136 0.142117,0.0879 0.142117,0.08789 1.581367,-0.0085 c 0.869753,-0.0047 1.598958,-0.0148 1.620456,-0.02247 z m 25.8449502,-9.636023 3.838436,-0.01999 v -0.74607 c 0,-0.57379 -0.009,-0.747031 -0.03909,-0.750232 -0.11894,-0.01266 -33.0967142,0.01399 -33.1300352,0.02678 -0.03098,0.01189 -0.03999,0.188354 -0.03999,0.782561 v 0.767213 l 12.7661222,-0.02013 c 7.021368,-0.01107 14.49342,-0.02913 16.60456,-0.04012 z m -6.926384,-3.190296 c 4.785537,-0.01145 8.700977,-0.03071 8.700977,-0.0428 0,-0.02305 -0.887794,-0.717916 -1.270322,-0.994262 -0.131618,-0.09508 -0.303226,-0.185972 -0.419415,-0.222135 -0.108157,-0.03366 -0.268239,-0.109549 -0.355737,-0.168636 l -0.159086,-0.107433 -5.378502,-0.01908 c -2.958176,-0.0105 -6.673094,-0.03315 -8.255374,-0.05034 -4.564026,-0.04959 -8.2802022,-0.09204 -10.0222312,-0.114503 l -1.610506,-0.02076 -0.930211,0.854209 c -0.511616,0.469815 -0.930211,0.865992 -0.930211,0.880393 0,0.03151 8.7517522,0.03378 20.6306182,0.0053 z m 10.734363,-1.222163 c 0.0019,-1.375614 -0.09971,-14.4454467 -0.11282,-14.5097117 l -0.0144,-0.07062 -1.711389,0.0081 -1.71139,0.0081 -0.0079,3.812659 c -0.0071,3.417043 -0.01305,3.818301 -0.05715,3.867028 -0.04496,0.04968 -0.04253,0.07278 0.02829,0.268122 0.04262,0.1175651 0.210943,0.5162937 0.374049,0.8860657 0.755378,1.712499 1.012208,2.542884 1.044529,3.377199 0.01893,0.488713 -0.02081,0.747568 -0.147827,0.962848 -0.03373,0.05715 -0.06132,0.122206 -0.06132,0.144558 0,0.02235 0.214593,0.203217 0.476873,0.401924 0.26228,0.198707 0.779413,0.601175 1.149185,0.894375 0.369772,0.293199 0.689903,0.533678 0.711401,0.534399 0.0299,0.001 0.03928,-0.136521 0.0399,-0.58501 z M 2.4980608,16.036658 c 0.561251,-0.515961 1.078754,-0.989028 1.150005,-1.05126 0.129154,-0.112806 0.129521,-0.113757 0.120657,-0.312704 -0.01185,-0.265951 0.07728,-1.697725 0.13525,-2.172579 0.12647,-1.03603 0.330289,-1.716129 0.697081,-2.326006 l 0.178276,-0.2964236 0.0089,-3.9407091 c 0.0049,-2.16739 0.0011,-3.97237 -0.0084,-4.011067 l -0.01735,-0.07036 h -1.700293 c -1.333074,0 -1.70285,0.0084 -1.71213,0.03909 -0.01666,0.05502 0.03672,15.0083877 0.05376,15.0592777 0.0077,0.02293 0.02741,0.037 0.04386,0.03127 0.01645,-0.0057 0.489108,-0.432568 1.050359,-0.948529 z M 31.112838,14.411796 c 0.0096,-0.02514 -0.01096,-0.169374 -0.04578,-0.320521 -0.03483,-0.151147 -0.107425,-0.535138 -0.161327,-0.853314 -0.279991,-1.652768 -0.501625,-2.251402 -1.076693,-2.908143 l -0.177984,-0.203257 -0.432822,-0.05377 c -0.238052,-0.02957 -0.859858,-0.1376806 -1.381791,-0.2402367 -1.680707,-0.330245 -1.444153,-0.3161 -4.373073,-0.26149 -1.763632,0.03288 -2.133167,0.05948 -2.704886,0.194673 -0.764529,0.1807881 -1.379109,0.5245317 -1.806421,1.0103597 -0.107185,0.121863 -0.259586,0.289647 -0.338668,0.372854 l -0.143786,0.151285 -0.0198,0.335638 c -0.01089,0.184601 -0.06917,0.680394 -0.129507,1.101762 -0.06407,0.4474 -0.109845,0.891209 -0.110033,1.066793 -2.82e-4,0.25301 -0.01024,0.313272 -0.06286,0.380177 -0.0344,0.04373 -0.06254,0.108949 -0.06254,0.144933 0,0.06273 0.01643,0.06561 0.398697,0.06995 1.669283,0.01893 6.685236,0.04667 9.366454,0.0518 2.822025,0.0054 3.247569,2.5e-4 3.262821,-0.03949 z m -14.327723,-0.04481 c 0.0095,-0.01539 0.0031,-0.102764 -0.01422,-0.194162 -0.01733,-0.0914 -0.05278,-0.448187 -0.07878,-0.792864 -0.08198,-1.08704 -0.176594,-1.597302 -0.3649,-1.967934 -0.0746,-0.146824 -0.30878,-0.402697 -0.446414,-0.48776 -0.195987,-0.121127 -1.139652,-0.408718 -1.782905,-0.543356 -0.957665,-0.200449 -1.923671,-0.285568 -4.1433226,-0.365089 -0.9859066,-0.03532 -1.4107376,-0.06487 -1.8136806,-0.1261596 -0.286348,-0.04355 -0.823785,-0.01999 -1.078827,0.04731 -0.62849,0.1658276 -1.189552,0.6501666 -1.525599,1.3169796 -0.31187,0.618841 -0.522609,1.657398 -0.522609,2.575507 v 0.406331 l 0.101628,0.01513 c 0.0559,0.0083 1.726906,0.03187 3.713355,0.05234 3.2664822,0.03365 6.6723242,0.07242 7.5890332,0.08638 0.19247,0.0029 0.357729,-0.0073 0.367241,-0.02265 z m 0.626779,-3.543267 c 0.127337,-0.03406 0.142732,-0.04841 0.159358,-0.148534 0.04076,-0.245483 0.111143,-0.435636 0.226756,-0.612623 0.138936,-0.2126907 0.192643,-0.2638807 0.47448,-0.4522427 0.111792,-0.07471 0.294723,-0.197696 0.406515,-0.273295 0.658323,-0.445188 1.593789,-0.761401 2.652441,-0.896599 0.881374,-0.112558 2.69405,-0.13737 4.039416,-0.05529 0.232333,0.01417 0.438308,0.01372 0.458087,-10e-4 0.02687,-0.02001 0.02507,-0.06786 -0.0071,-0.189719 -0.02369,-0.08962 -0.05238,-0.265199 -0.06375,-0.390163 -0.02349,-0.258154 0.0191,-0.228478 -0.434106,-0.302499 -1.874714,-0.306189 -3.804624,-0.53054 -5.269055,-0.612524 -0.53592,-0.03 -0.626674,-0.02811 -0.749328,0.0156 -0.240361,0.08565 -0.538789,0.09093 -1.131697,0.02002 -0.303618,-0.03631 -0.701595,-0.06602 -0.884392,-0.06602 -0.207758,0 -0.370116,-0.01578 -0.433075,-0.04208 -0.08645,-0.03612 -0.153871,-0.03398 -0.475868,0.0151 -0.767461,0.116989 -1.661233,0.199699 -3.674174,0.340011 -1.096097,0.0764 -1.723839,0.134766 -2.364846,0.219866 -0.4886182,0.06487 -0.9823282,0.145871 -1.0006272,0.16417 -0.0057,0.0057 -0.02459,0.171384 -0.04188,0.368088 -0.01729,0.196704 -0.04646,0.438702 -0.06483,0.537773 -0.01836,0.09907 -0.02606,0.191985 -0.01711,0.206475 0.009,0.01449 0.210217,0.03636 0.447247,0.04861 0.2370306,0.01225 0.9164372,0.06446 1.5097922,0.116034 0.636325,0.05531 1.470025,0.104819 2.032573,0.120706 1.024503,0.02893 1.256436,0.06006 1.773797,0.238034 0.779947,0.268308 1.524832,0.7827871 2.025552,1.3990117 0.120391,0.148163 0.229244,0.269706 0.241896,0.270096 0.01265,3.91e-4 0.08643,-0.01626 0.163959,-0.03699 z M 6.8705698,8.8117833 c 0.156919,-0.02658 0.472894,-0.06528 0.702166,-0.08599 l 0.41686,-0.03767 0.01206,-0.894233 c 0.0073,-0.542384 0.02556,-0.929952 0.04637,-0.985016 0.08068,-0.213497 0.342856,-0.385925 0.588681,-0.387165 0.07491,-3.78e-4 0.219335,-0.02223 0.32094,-0.04856 0.295825,-0.07666 1.0904182,-0.191846 1.7161462,-0.248785 0.318176,-0.02895 0.610305,-0.06528 0.649176,-0.08072 l 0.07067,-0.02808 -0.0081,-1.431145 -0.0081,-1.431146 -0.770356,-0.02691 c -0.6276186,-0.02192 -0.7866562,-0.01903 -0.8586372,0.01563 -0.06171,0.02972 -0.126693,0.117967 -0.215534,0.292706 -0.327486,0.644125 -0.729961,1.04378 -1.32962,1.320305 -0.213988,0.09868 -0.331686,0.130747 -0.60247,0.164154 -0.318226,0.03926 -0.737649,0.03173 -1.031262,-0.0185 l -0.117266,-0.020065 v 1.989759 1.989759 h 0.06649 c 0.03657,0 0.194873,-0.02175 0.351791,-0.04833 z m 22.4640442,-2.085874 -0.0081,-1.94658 -0.203258,0.0022 c -0.111791,0.0012 -0.505798,0.0077 -0.87557,0.0144 -0.66529,0.01206 -0.674415,0.01134 -0.879382,-0.06969 -0.504932,-0.199595 -0.809616,-0.48106 -1.307255,-1.207632 l -0.191398,-0.279449 -0.663728,-0.01472 c -0.36505,-0.0081 -0.686724,-0.0032 -0.71483,0.01093 -0.04488,0.02253 -0.05392,0.144696 -0.0743,1.003684 -0.01276,0.53792 -0.02494,1.160676 -0.02707,1.383901 l -0.0039,0.405865 0.140717,0.02271 c 0.07739,0.01249 0.306343,0.04519 0.508776,0.07267 0.46069,0.06253 0.824786,0.153073 1.082108,0.269083 0.168662,0.07604 0.224567,0.08691 0.36313,0.07063 0.155884,-0.01832 0.169799,-0.01381 0.288719,0.09363 0.255269,0.23062 0.404823,0.764002 0.372974,1.3302 -0.01025,0.182214 -0.02731,0.374837 -0.03792,0.42805 l -0.01928,0.09675 0.464072,0.02101 c 0.561081,0.0254 1.13715,0.09565 1.433452,0.174793 0.120391,0.03216 0.25066,0.05974 0.289487,0.06129 l 0.0706,0.0028 z M 14.095619,5.7976563 c 0.500014,-0.08487 1.042798,-0.171387 1.206185,-0.192257 0.440199,-0.05623 1.00485,-0.04868 1.260826,0.01685 0.172589,0.04419 0.239145,0.04809 0.348938,0.02044 0.09356,-0.02356 0.186404,-0.02454 0.299143,-0.0032 0.240075,0.04553 0.819018,0.03778 1.173948,-0.01572 0.524469,-0.07905 1.112401,-0.0592 2.405093,0.08122 0.326775,0.03549 0.770033,0.07649 0.985016,0.09111 0.214984,0.01462 0.499946,0.04439 0.633249,0.06616 0.152667,0.02493 0.252856,0.0286 0.270705,0.0099 0.0361,-0.03782 0.109311,-2.609732 0.07522,-2.642457 -0.04138,-0.03972 -9.616347,-0.09433 -9.663598,-0.05511 -0.03136,0.02602 -0.04,0.325156 -0.04,1.384418 0,0.743171 0.0094,1.360601 0.02085,1.372066 0.03334,0.03334 0.06931,0.02866 1.024433,-0.133464 z"
     id="path11887"
     inkscape:connector-curvature="0" />
</svg>
