<!-- Generated by IcoMoon.io -->
<svg version="1.1" xmlns="http://www.w3.org/2000/svg" width="29" height="32" viewBox="0 0 29 32">
<title>lupa</title>
<path fill="none" stroke="#000" stroke-linejoin="miter" stroke-linecap="butt" stroke-miterlimit="10" stroke-width="1.0169" d="M23.833 12.965c0 6.88-5.222 12.457-11.662 12.457s-11.662-5.577-11.662-12.457 5.222-12.457 11.662-12.457 11.662 5.577 11.662 12.457z"></path>
<path fill="none" stroke="#000" stroke-linejoin="miter" stroke-linecap="butt" stroke-miterlimit="10" stroke-width="1.0169" d="M18.526 23.547l6.991 7.944"></path>
<path fill="none" stroke="#000" stroke-linejoin="miter" stroke-linecap="butt" stroke-miterlimit="10" stroke-width="1.0169" d="M28.917 27.964l-6.927-7.309"></path>
<path d="M25.439 31.713c1.005 0.108 2.062-0.275 2.742-1.031 0.695-0.773 0.957-1.814 0.775-2.829-0.086-0.482-0.821-0.278-0.735 0.203 0.3 1.675-1.136 3.073-2.782 2.895-0.487-0.053-0.484 0.711 0 0.763z"></path>
<path d="M28.465 27.947c0.027 0.086 0.043 0.185 0.043 0.287 0 0.177-0.047 0.343-0.13 0.486l0.003-0.005c-0.238 0.43 0.42 0.815 0.658 0.385 0.144-0.25 0.229-0.55 0.229-0.87 0-0.173-0.025-0.341-0.071-0.499l0.003 0.012c-0.134-0.471-0.87-0.271-0.735 0.203z"></path>
<path d="M28.503 28.131c0.079 0.909-0.137 1.886-0.834 2.524-0.636 0.579-1.625 0.718-2.352 0.238-0.41-0.272-0.793 0.388-0.381 0.658 0.961 0.636 2.262 0.465 3.137-0.24 0.932-0.75 1.295-2.024 1.194-3.178-0.042-0.486-0.805-0.49-0.763 0z"></path>
<path d="M21.491 20.82l0.596 0.756c0.127 0.162 0.406 0.133 0.54 0 0.16-0.16 0.127-0.377 0-0.54l-0.596-0.756c-0.127-0.162-0.405-0.134-0.539 0-0.16 0.16-0.127 0.377 0 0.539z"></path>
<path d="M21.499 20.909l1.263 1.338c0.337 0.358 0.876-0.182 0.539-0.539l-1.262-1.338c-0.338-0.358-0.876 0.182-0.54 0.539z"></path>
<path d="M21.465 20.427l0.941 1.268c0.127 0.166 0.329 0.247 0.522 0.137 0.164-0.093 0.259-0.357 0.137-0.522l-0.942-1.267c-0.127-0.166-0.329-0.247-0.522-0.137-0.164 0.093-0.259 0.357-0.137 0.521z"></path>
<path fill="none" stroke="#000" stroke-linejoin="miter" stroke-linecap="butt" stroke-miterlimit="10" stroke-width="1.0169" d="M20.623 12.822c0 5.098-3.827 9.231-8.548 9.231s-8.548-4.133-8.548-9.231c0-5.098 3.827-9.231 8.548-9.231s8.548 4.133 8.548 9.231z"></path>
<path d="M24.977 31.42c0.076 0.271 0.322 0.467 0.613 0.467 0.051 0 0.101-0.006 0.148-0.017l-0.004 0.001c0.098-0.027 0.178-0.090 0.227-0.173l0.001-0.002c0.032-0.056 0.052-0.123 0.052-0.195 0-0.035-0.005-0.070-0.013-0.102l0.001 0.003c-0.028-0.098-0.090-0.177-0.174-0.227l-0.002-0.001c-0.059-0.031-0.128-0.048-0.202-0.048-0.033 0-0.065 0.004-0.095 0.010l0.003-0.001h-0.015l0.102-0.013c-0.010 0.001-0.021 0.002-0.032 0.002s-0.022-0.001-0.033-0.002l0.001 0 0.101 0.014c-0.023-0.004-0.043-0.010-0.062-0.018l0.002 0.001 0.091 0.039c-0.026-0.012-0.048-0.026-0.068-0.041l0.001 0.001 0.078 0.060c-0.016-0.014-0.030-0.029-0.043-0.044l-0.001-0.001 0.059 0.078c-0.011-0.016-0.021-0.034-0.030-0.052l-0.001-0.002 0.039 0.092c-0.003-0.008-0.006-0.018-0.009-0.028l-0-0.002c-0.054-0.191-0.273-0.33-0.469-0.266-0.162 0.048-0.279 0.196-0.279 0.372 0 0.035 0.005 0.068 0.013 0.1l-0.001-0.003z"></path>
<path d="M25.149 31.771l0.572 0.116c0.195 0.040 0.421-0.056 0.469-0.266 0.043-0.191-0.057-0.426-0.266-0.469l-0.572-0.117c-0.195-0.039-0.421 0.057-0.47 0.267-0.043 0.191 0.058 0.426 0.266 0.469z"></path>
<path d="M25.343 31.746c0.181 0.095 0.395 0.15 0.623 0.15 0.088 0 0.174-0.008 0.258-0.024l-0.009 0.001c0.198-0.032 0.325-0.288 0.266-0.47-0.069-0.214-0.254-0.301-0.469-0.266 0.064-0.010-0.053 0-0.057 0s-0.121-0.011-0.057 0c-0.047-0.009-0.086-0.019-0.124-0.031l0.008 0.002-0.038-0.013c0.030 0.013 0.025 0.010-0.017-0.011-0.177-0.090-0.422-0.052-0.522 0.137-0.092 0.174-0.053 0.425 0.137 0.521z"></path>
<path d="M25.347 31.84c0.174 0.103 0.384 0.163 0.607 0.163 0.204 0 0.397-0.050 0.565-0.14l-0.007 0.003c0.184-0.091 0.235-0.353 0.137-0.522-0.070-0.112-0.192-0.186-0.332-0.186-0.070 0-0.135 0.018-0.192 0.050l0.002-0.001c-0.051 0.024-0.11 0.039-0.173 0.039-0.083 0-0.16-0.025-0.224-0.067l0.002 0.001c-0.425-0.247-0.809 0.412-0.385 0.659z"></path>
<path d="M28.345 27.954l0.097 0.289c0.064 0.191 0.266 0.332 0.469 0.266 0.191-0.064 0.334-0.266 0.266-0.469l-0.097-0.289c-0.064-0.191-0.266-0.332-0.469-0.266-0.191 0.060-0.334 0.266-0.266 0.469z"></path>
<path d="M28.454 28.048l0.101 0.577c0.034 0.197 0.286 0.325 0.469 0.266 0.212-0.069 0.303-0.258 0.266-0.469l-0.101-0.577c-0.034-0.197-0.286-0.325-0.469-0.266-0.212 0.069-0.303 0.258-0.266 0.469z"></path>
<path d="M28.806 28.315l0.017 0.006-0.091-0.038c0.012 0.005 0.022 0.011 0.031 0.019l-0-0-0.077-0.060c0.007 0.006 0.013 0.013 0.019 0.019l0 0-0.060-0.078c0.009 0.011 0.017 0.024 0.023 0.038l0.001 0.001-0.039-0.091c0.004 0.010 0.008 0.022 0.009 0.035l0 0.001-0.014-0.102c0.001 0.005 0.001 0.012 0.001 0.018s-0 0.013-0.001 0.019l0-0.001 0.014-0.101c-0.002 0.010-0.004 0.019-0.007 0.027l0-0.001 0.038-0.091-0.004 0.008c-0.026 0.040-0.043 0.089-0.045 0.141l-0 0.001c-0.005 0.019-0.007 0.042-0.007 0.064 0 0.031 0.005 0.061 0.014 0.090l-0.001-0.002c0.029 0.097 0.091 0.177 0.174 0.227l0.002 0.001c0.055 0.032 0.122 0.052 0.193 0.052 0.036 0 0.071-0.005 0.104-0.014l-0.003 0.001c0.098-0.027 0.178-0.090 0.227-0.174l0.001-0.002c0.038-0.071 0.061-0.155 0.064-0.244l0-0.001c-0.001-0.092-0.024-0.178-0.065-0.253l0.001 0.003c-0.026-0.049-0.058-0.091-0.096-0.127l-0-0c-0.060-0.058-0.134-0.102-0.216-0.126l-0.004-0.001c-0.030-0.008-0.064-0.013-0.099-0.013-0.072 0-0.139 0.019-0.197 0.052l0.002-0.001c-0.114 0.067-0.189 0.19-0.189 0.329 0 0.071 0.019 0.137 0.053 0.194l-0.001-0.002c0.052 0.084 0.131 0.146 0.225 0.174l0.003 0.001z"></path>
<path d="M28.574 27.85c-0.096 0.2-0.153 0.436-0.153 0.684 0 0.101 0.009 0.199 0.027 0.295l-0.002-0.010c0.034 0.203 0.285 0.318 0.469 0.266 0.215-0.059 0.301-0.265 0.266-0.469-0.004-0.028-0.006-0.060-0.006-0.093 0-0.104 0.020-0.203 0.058-0.294l-0.002 0.005c0.085-0.187 0.053-0.41-0.137-0.522-0.163-0.095-0.436-0.051-0.521 0.137z"></path>
<path d="M28.546 28.143l-0.109 1.155c-0.019 0.205 0.191 0.381 0.381 0.381 0.222 0 0.362-0.175 0.381-0.381l0.109-1.154c0.019-0.205-0.191-0.381-0.381-0.381-0.222 0-0.362 0.175-0.381 0.381z"></path>
<path d="M28.632 28.237c-0.001 0.487-0.071 0.956-0.2 1.401l0.009-0.036c-0.133 0.473 0.602 0.675 0.735 0.203 0.138-0.469 0.218-1.009 0.221-1.566v-0.002c0-0.491-0.763-0.491-0.763 0z"></path>
<path d="M23.226 22.244c-0.589 1.21-1.5 2.185-2.624 2.836l-0.031 0.017c-0.426 0.243-0.042 0.902 0.385 0.658 1.27-0.733 2.275-1.802 2.91-3.087l0.019-0.042c0.212-0.44-0.445-0.826-0.658-0.385z"></path>
<path d="M12.889 6.428c1.367 0.644 2.487 1.617 3.29 2.821l0.018 0.029c0.842 1.275 1.492 2.974 1.233 4.521-0.080 0.48 0.655 0.686 0.736 0.203 0.289-1.729-0.325-3.581-1.258-5.028-0.89-1.377-2.144-2.513-3.634-3.201-0.445-0.205-0.83 0.452-0.384 0.658z"></path>
</svg>
