<?xml version="1.0" encoding="UTF-8" standalone="no"?>
<!-- Generated by IcoMoon.io -->

<svg
   xmlns:dc="http://purl.org/dc/elements/1.1/"
   xmlns:cc="http://creativecommons.org/ns#"
   xmlns:rdf="http://www.w3.org/1999/02/22-rdf-syntax-ns#"
   xmlns:svg="http://www.w3.org/2000/svg"
   xmlns="http://www.w3.org/2000/svg"
   xmlns:sodipodi="http://sodipodi.sourceforge.net/DTD/sodipodi-0.dtd"
   xmlns:inkscape="http://www.inkscape.org/namespaces/inkscape"
   version="1.1"
   width="32"
   height="32"
   viewBox="0 0 32 32"
   id="svg7490"
   sodipodi:docname="rabstol1.svg"
   inkscape:version="0.92.4 (5da689c313, 2019-01-14)">
  <metadata
     id="metadata7496">
    <rdf:RDF>
      <cc:Work
         rdf:about="">
        <dc:format>image/svg+xml</dc:format>
        <dc:type
           rdf:resource="http://purl.org/dc/dcmitype/StillImage" />
      </cc:Work>
    </rdf:RDF>
  </metadata>
  <defs
     id="defs7494" />
  <sodipodi:namedview
     pagecolor="#ffffff"
     bordercolor="#666666"
     borderopacity="1"
     objecttolerance="10"
     gridtolerance="10"
     guidetolerance="10"
     inkscape:pageopacity="0"
     inkscape:pageshadow="2"
     inkscape:window-width="1920"
     inkscape:window-height="1017"
     id="namedview7492"
     showgrid="false"
     inkscape:zoom="7.375"
     inkscape:cx="-6.0338983"
     inkscape:cy="16"
     inkscape:window-x="-8"
     inkscape:window-y="-8"
     inkscape:window-maximized="1"
     inkscape:current-layer="svg7490" />
  <title
     id="title7444">rabstol1</title>
  <path
     id="path7488"
     style="color:#000000;font-style:normal;font-variant:normal;font-weight:normal;font-stretch:normal;font-size:medium;line-height:normal;font-family:sans-serif;font-variant-ligatures:normal;font-variant-position:normal;font-variant-caps:normal;font-variant-numeric:normal;font-variant-alternates:normal;font-feature-settings:normal;text-indent:0;text-align:start;text-decoration:none;text-decoration-line:none;text-decoration-style:solid;text-decoration-color:#000000;letter-spacing:normal;word-spacing:normal;text-transform:none;writing-mode:lr-tb;direction:ltr;text-orientation:mixed;dominant-baseline:auto;baseline-shift:baseline;text-anchor:start;white-space:normal;shape-padding:0;clip-rule:nonzero;display:inline;overflow:visible;visibility:visible;opacity:1;isolation:auto;mix-blend-mode:normal;color-interpolation:sRGB;color-interpolation-filters:linearRGB;solid-color:#000000;solid-opacity:1;vector-effect:none;fill:#000000;fill-opacity:1;fill-rule:nonzero;stroke:none;stroke-width:1.78349996;stroke-linecap:butt;stroke-linejoin:round;stroke-miterlimit:10;stroke-dasharray:none;stroke-dashoffset:0;stroke-opacity:1;color-rendering:auto;image-rendering:auto;shape-rendering:auto;text-rendering:auto;enable-background:accumulate"
     d="m 26.615234,23.570312 v 3.19336 h 1.783204 v -3.19336 z M 4.6699219,9.5019531 a 0.89183915,0.89183915 0 1 0 0,1.7832029 H 15.638672 a 0.89183915,0.89183915 0 1 0 0,-1.7832029 z m 0,-2.1289062 a 0.89183915,0.89183915 0 1 0 0,1.7832031 H 15.638672 a 0.89183915,0.89183915 0 1 0 0,-1.7832031 z M 16.041016,12.039062 4.5820312,12.121092 a 0.89183915,0.89183915 0 1 0 0.011719,1.783203 l 11.4609378,-0.08203 a 0.89183915,0.89183915 0 1 0 -0.01367,-1.783204 z M 4.5058594,4.1386719 a 0.89183915,0.89183915 0 1 0 0,1.7832031 H 15.720703 a 0.89183915,0.89183915 0 1 0 0,-1.7832031 z M 15.759766,4.1269531 a 0.89183915,0.89183915 0 0 0 -0.929688,0.9414063 l 0.326172,7.8984376 a 0.89237346,0.89237346 0 1 0 1.783203,-0.07422 L 16.611328,4.9941406 A 0.89183915,0.89183915 0 0 0 15.759766,4.1269531 Z m -11.2773441,0 A 0.89183915,0.89183915 0 0 0 3.6152344,5.0410156 l 0.082031,7.9804684 a 0.89183915,0.89183915 0 1 0 1.7832032,-0.01953 L 5.3984375,5.0214844 A 0.89183915,0.89183915 0 0 0 4.4824219,4.1269531 Z M 29.998047,16.253906 1.3496094,16.417969 1.3593794,18.201172 30.00977,18.037109 Z M 3.5234375,21.005859 v 1.449219 H 16.621094 v -1.449219 z m 0,-2.910156 v 1.783203 H 16.701172 v -1.783203 z m 0.3359375,-2.472656 -0.082031,7.693359 1.7851562,0.01953 0.082031,-7.695313 z m 10.642578,0.162109 -0.08203,7.449219 1.783203,0.01953 0.08203,-7.449218 z m 11.859375,7.222656 v 1.783204 h 1.587891 v -1.783204 z m 0.488281,3.191407 v 1.783203 h 3.6875 v -1.783203 z m 0.501953,0.40039 v 1.146485 h 1.785157 V 26.599609 Z M 2.3867188,23.408203 v 4.011719 h 1.7832031 v -4.011719 z m -1.2363282,2.75 v 1.783203 H 3.8007812 V 26.158203 Z M 2.6230469,22.84375 v 1.783203 c 8.5072731,0 16.9367421,0.0822 25.4902341,0.158203 l 0.01563,-1.783203 C 19.576399,22.925957 11.141773,22.84375 2.6230469,22.84375 Z m 27.1035151,-7.136719 -0.08203,11.951172 1.783203,0.01172 0.08203,-11.951172 z M 0.09570312,16.123047 V 27.664062 H 1.8789062 V 16.123047 Z m 0.23828126,-1.464844 -0.003906,1.783203 30.94140562,0.08203 0.0039,-1.783204 z" />
</svg>
