<?xml version="1.0" encoding="UTF-8" standalone="no"?>
<!-- Created with Inkscape (http://www.inkscape.org/) -->

<svg
   xmlns:dc="http://purl.org/dc/elements/1.1/"
   xmlns:cc="http://creativecommons.org/ns#"
   xmlns:rdf="http://www.w3.org/1999/02/22-rdf-syntax-ns#"
   xmlns:svg="http://www.w3.org/2000/svg"
   xmlns="http://www.w3.org/2000/svg"
   xmlns:sodipodi="http://sodipodi.sourceforge.net/DTD/sodipodi-0.dtd"
   xmlns:inkscape="http://www.inkscape.org/namespaces/inkscape"
   version="1.1"
   id="svg14113"
   width="27.686693"
   height="25.049866"
   viewBox="0 0 27.686693 25.049866"
   sodipodi:docname="shkafmal.svg"
   inkscape:version="0.92.4 (5da689c313, 2019-01-14)">
  <metadata
     id="metadata14119">
    <rdf:RDF>
      <cc:Work
         rdf:about="">
        <dc:format>image/svg+xml</dc:format>
        <dc:type
           rdf:resource="http://purl.org/dc/dcmitype/StillImage" />
        <dc:title></dc:title>
      </cc:Work>
    </rdf:RDF>
  </metadata>
  <defs
     id="defs14117" />
  <sodipodi:namedview
     pagecolor="#ffffff"
     bordercolor="#666666"
     borderopacity="1"
     objecttolerance="10"
     gridtolerance="10"
     guidetolerance="10"
     inkscape:pageopacity="0"
     inkscape:pageshadow="2"
     inkscape:window-width="1920"
     inkscape:window-height="1017"
     id="namedview14115"
     showgrid="false"
     inkscape:zoom="7.3725989"
     inkscape:cx="-6.9271892"
     inkscape:cy="9.3858961"
     inkscape:window-x="-8"
     inkscape:window-y="-8"
     inkscape:window-maximized="1"
     inkscape:current-layer="svg14113" />
  <path
     style="fill:#000000;stroke-width:0.26368278"
     d="m 1.3184143,15.161761 c 0,-3.296035 0,-6.5920695 0,-9.8881042 C 0.90434387,5.2233645 0.28971718,5.3736284 0,5.1989829 0,3.4659886 0,1.7329943 0,0 c 9.2288977,0 18.457795,0 27.686693,0 0,1.7578856 0,3.5157712 0,5.2736568 -0.41407,0.050292 -1.028697,-0.099972 -1.318414,0.074674 0,6.5671783 0,13.1343573 0,19.7015353 -1.318414,0 -2.636827,0 -3.955241,0 -0.0656,-1.068101 0.174213,-2.192869 -0.198414,-3.210571 -1.066548,-0.968715 -2.708262,-0.590891 -4.037298,-0.733291 -3.65816,0.0133 -7.321887,-0.0985 -10.9761033,0.09177 -1.569178,-0.200978 -2.2119706,1.251037 -1.927567,2.580703 -0.055706,0.392982 0.1078116,1.005189 -0.074674,1.271392 -1.2935225,0 -2.587045,0 -3.8805675,0 0,-3.296035 0,-6.59207 0,-9.888105 z m 2.6368278,7.01792 C 3.4036347,20.682392 5.3138886,20.224512 5.1823847,18.945889 3.9788976,18.523254 3.3188019,16.815152 4.3907489,15.823676 c 1.3193531,0.06747 1.0025208,-1.44657 -0.1539169,-1.309 -0.5328698,-0.02425 -1.0666967,-0.0069 -1.6000042,-0.01212 0,3.076299 0,6.152599 0,9.228898 1.1655244,0.191163 1.4878768,-0.342862 1.3184143,-1.551771 z M 25.049866,19.117003 c 0,-1.53815 0,-3.076299 0,-4.614449 -0.902425,0.07181 -2.06039,-0.264359 -2.690831,0.562033 0.0057,0.95365 1.856402,0.53455 1.371492,1.874306 0.171465,0.909909 -0.161867,1.649945 -1.093823,1.803777 -0.731441,1.32469 1.66392,1.727768 1.093729,3.192466 -0.186386,0.991997 0.05757,2.123522 1.257612,1.796316 0.143967,-0.324683 0.02081,-0.916486 0.06182,-1.344131 1e-6,-1.090106 2e-6,-2.180212 3e-6,-3.270318 z M 13.18414,17.131267 c -0.05052,-0.415377 0.100658,-1.037128 -0.07465,-1.324819 -2.128525,0.04879 -4.2570498,0.09758 -6.3855745,0.146369 -0.00394,0.748365 -0.4414438,1.79884 0.376709,2.244054 1.6287049,0.444539 3.3517115,0.200539 5.0249755,0.260932 0.339033,-0.11338 1.181946,0.277119 1.058544,-0.298696 0,-0.342613 0,-0.685227 0,-1.02784 z m 8.950919,0.94823 c 0.391861,-0.646135 0.195339,-1.419789 0.146139,-2.126687 -2.592881,-0.04865 -5.185762,-0.09729 -7.778643,-0.14594 0,0.883642 0,1.767284 0,2.650926 2.339913,-0.03527 4.689237,0.09633 7.020929,-0.128806 0.210118,-0.04591 0.458143,-0.07756 0.611575,-0.249493 z M 7.9104835,13.843347 C 7.7470052,13.21122 8.087567,13.083133 8.6572228,13.18414 c 5.4642142,0 10.9284292,0 16.3926432,0 0,-2.636828 0,-5.2736555 0,-7.9104832 -7.471013,0 -14.942025,0 -22.4130382,0 0,2.6368277 0,5.2736552 0,7.9104832 1.229835,0.03064 2.4716278,-0.07672 3.6915594,0.0879 0.3183183,0.545211 0.4232977,1.726217 1.4502552,1.098678 0.1311792,-0.147044 0.1272486,-0.346269 0.1318411,-0.527366 z M 4.6803697,11.026813 C 3.5688219,10.002583 3.7600538,8.1460709 4.924981,7.2449944 5.2629877,6.957383 5.5059249,6.4402532 6.0259488,6.5920698 c 5.3829002,0 10.7658012,0 16.1487012,0 0.835917,0.8281139 1.536245,1.9260624 1.262876,3.1613561 C 23.353446,10.624335 22.722973,11.248468 22.17465,11.865726 16.584932,11.844866 10.995215,11.824006 5.4054972,11.803146 5.163788,11.544368 4.9220789,11.285591 4.6803697,11.026813 Z M 13.132666,9.2948188 C 13.019085,8.9146861 13.246138,8.179898 12.902992,8.0387785 10.838775,8.0215538 8.7652186,7.8421441 6.7078944,8.0595297 c -1.2962668,0.2910876 -2.1981,2.6368833 -0.2166076,2.4323323 2.2389741,0.09697 4.4812342,0.04006 6.7217472,0.05545 -0.02679,-0.417498 -0.05358,-0.8349955 -0.08037,-1.2524932 z m 9.14853,0.358342 C 22.189306,8.2245202 20.48617,7.806699 19.291192,7.9571487 c -1.552688,-0.00826 -3.104564,0.055715 -4.656797,0.085179 -0.05377,0.8397511 -0.107547,1.6795021 -0.16132,2.5192532 2.602707,-0.04871 5.205413,-0.09741 7.80812,-0.14612 0,-0.2541 1e-6,-0.5082001 1e-6,-0.7623002 z m 4.087083,-7.016333 c -0.05135,-0.4130142 0.10182,-1.0305443 -0.07467,-1.318413 -8.325064,0 -16.6501271,0 -24.9751907,0 0,0.8789423 0,1.7578847 0,2.636827 8.3499549,0 16.6999097,0 25.0498647,0 0,-0.4394713 0,-0.8789427 0,-1.318414 z"
     id="path14663"
     inkscape:connector-curvature="0" />
</svg>
