<?xml version="1.0" encoding="UTF-8" standalone="no"?>
<svg
   xmlns:dc="http://purl.org/dc/elements/1.1/"
   xmlns:cc="http://creativecommons.org/ns#"
   xmlns:rdf="http://www.w3.org/1999/02/22-rdf-syntax-ns#"
   xmlns:svg="http://www.w3.org/2000/svg"
   xmlns="http://www.w3.org/2000/svg"
   xmlns:xlink="http://www.w3.org/1999/xlink"
   xmlns:sodipodi="http://sodipodi.sourceforge.net/DTD/sodipodi-0.dtd"
   xmlns:inkscape="http://www.inkscape.org/namespaces/inkscape"
   version="1.1"
   width="30"
   height="33"
   xml:space="preserve"
   id="svg3781"
   sodipodi:docname="Untitled.svg"
   inkscape:version="0.92.4 (5da689c313, 2019-01-14)"><metadata
     id="metadata3787"><rdf:RDF><cc:Work
         rdf:about=""><dc:format>image/svg+xml</dc:format><dc:type
           rdf:resource="http://purl.org/dc/dcmitype/StillImage" /></cc:Work></rdf:RDF></metadata><defs
     id="defs3785"><pattern
       inkscape:collect="always"
       xlink:href="#pattern4759"
       id="pattern5480"
       patternTransform="translate(0.15350124,0.20326124)" /><pattern
       patternUnits="userSpaceOnUse"
       width="29.961587"
       height="32.480743"
       patternTransform="translate(-0.00215894,0.24217633)"
       id="pattern4759"><path
         inkscape:connector-curvature="0"
         id="path3751"
         d="M 0.60372144,1.1170657e-5 A 0.60006002,0.60006002 0 0 0 0.02559644,0.77344867 L 0.79708082,3.4570425 A 0.60006002,0.60006002 0 0 0 1.0470808,4.4238393 L 5.644737,19.64259 a 0.60006002,0.60006002 0 0 0 -0.00781,1.128906 l -2.703125,4.828125 a 0.60006002,0.60006002 0 0 0 -0.5507812,0.798828 l 0.044922,0.132813 A 0.60006002,0.60006002 0 0 0 2.6525522,27.20509 L 2.883021,27.898449 A 0.60033887,0.60033887 0 1 0 4.0216901,27.51759 L 3.7287214,26.638683 7.0236433,20.750012 27.836143,19.714855 a 0.60006002,0.60006002 0 0 0 1.148438,-0.05664 l 0.04687,-0.002 a 0.60006002,0.60006002 0 0 0 0.0098,-1.197266 l 0.38086,-10.4531254 a 0.60006002,0.60006002 0 0 0 0.0059,-1.1933594 l -0.08789,-0.011719 a 0.60006002,0.60006002 0 0 0 -0.875,-0.109375 L 10.691612,4.4453237 A 0.60006002,0.60006002 0 0 0 9.9220808,4.3476675 l -7.9082031,-1 L 1.1779401,0.44141742 A 0.60006002,0.60006002 0 0 0 0.60372144,1.1170657e-5 Z M 2.3537214,4.6015737 l 3.4667969,0.4375 1.8203125,7.0253913 -3.0351563,-0.0059 z m 4.7480469,0.5996094 2.7207031,0.34375 1.8398436,6.5292969 -2.783203,-0.0059 z m 4.0136717,0.5078125 2.855469,0.3613281 1.929688,6.0117193 -2.990235,-0.0059 z m 4.169922,0.5273437 2.535156,0.3203125 a 0.60006002,0.60006002 0 0 0 0.01953,0.0625 l 2.066406,5.4707032 -2.744141,-0.0059 z m 3.878906,0.4902344 2.021485,0.2539062 2.30664,5.1171881 -2.302734,-0.0059 z m 3.417969,0.4316406 5.642578,0.7128906 -0.154297,4.2363281 -3.261718,-0.0078 z m -17.6132812,6.1015627 2.9824219,0.0059 1.5957031,6.158204 -2.4023438,0.11914 A 0.60006002,0.60006002 0 0 0 6.8263777,19.404308 Z m 4.2207031,0.0078 2.8105471,0.0059 1.675781,5.945313 -2.90625,0.144531 z m 4.0585941,0.0098 3.039062,0.0059 1.835938,5.714843 -3.216797,0.160157 z m 4.300781,0.0078 2.810547,0.0059 2.074219,5.492188 -3.070313,0.152343 z m 4.09375,0.0098 2.390625,0.0039 2.384766,5.287109 -2.730469,0.134766 a 0.60006002,0.60006002 0 0 0 -0.02344,-0.07422 z m 3.708984,0.0078 2.675782,0.0059 -0.189453,5.207031 -0.134766,0.0059 a 0.60006002,0.60006002 0 0 0 -0.0039,-0.0098 z m -2.910156,13.955047 -5.896484,0.09961 -5.898438,0.05078 a 0.60006002,0.60006002 0 0 0 -0.0039,0 l -5.9003967,0.09961 a 0.60006002,0.60006002 0 1 0 0.019531,1.199219 l 0.2402346,-0.0039 v 3.154297 a 0.60006002,0.60006002 0 1 0 1.1992188,0 v -3.173828 l 4.4589843,-0.07617 5.896485,-0.04883 a 0.60006002,0.60006002 0 0 0 0.0059,0 l 5.894531,-0.101562 h 2.845703 v 3.15039 a 0.60006002,0.60006002 0 1 0 1.199219,0 v -3.15039 h 1.900391 a 0.60006002,0.60006002 0 1 0 0,-1.199219 h -5.951172 a 0.60006002,0.60006002 0 0 0 -0.0098,0 z"
         style="color:#000000;font-style:normal;font-variant:normal;font-weight:normal;font-stretch:normal;font-size:medium;line-height:normal;font-family:sans-serif;font-variant-ligatures:normal;font-variant-position:normal;font-variant-caps:normal;font-variant-numeric:normal;font-variant-alternates:normal;font-feature-settings:normal;text-indent:0;text-align:start;text-decoration:none;text-decoration-line:none;text-decoration-style:solid;text-decoration-color:#000000;letter-spacing:normal;word-spacing:normal;text-transform:none;writing-mode:lr-tb;direction:ltr;text-orientation:mixed;dominant-baseline:auto;baseline-shift:baseline;text-anchor:start;white-space:normal;shape-padding:0;clip-rule:nonzero;display:inline;overflow:visible;visibility:visible;opacity:1;isolation:auto;mix-blend-mode:normal;color-interpolation:sRGB;color-interpolation-filters:linearRGB;solid-color:#000000;solid-opacity:1;vector-effect:none;fill:#000000;fill-opacity:1;fill-rule:nonzero;stroke:none;stroke-width:1.20000005;stroke-linecap:round;stroke-linejoin:round;stroke-miterlimit:3;stroke-dasharray:none;stroke-dashoffset:0.31999999;stroke-opacity:1;paint-order:fill markers stroke;color-rendering:auto;image-rendering:auto;shape-rendering:auto;text-rendering:auto;enable-background:accumulate" /></pattern></defs><sodipodi:namedview
     pagecolor="#ffffff"
     bordercolor="#666666"
     borderopacity="1"
     objecttolerance="10"
     gridtolerance="10"
     guidetolerance="10"
     inkscape:pageopacity="0"
     inkscape:pageshadow="2"
     inkscape:window-width="1920"
     inkscape:window-height="1017"
     id="namedview3783"
     showgrid="false"
     inkscape:zoom="25.69697"
     inkscape:cx="8.3260613"
     inkscape:cy="16.5"
     inkscape:window-x="-8"
     inkscape:window-y="-8"
     inkscape:window-maximized="1"
     inkscape:current-layer="svg3781" /><g
     id="g5793"><g
       id="g5788"><path
         id="rect4762"
         style="fill:url(#pattern5480);stroke:none;stroke-width:0.1;stroke-miterlimit:3;stroke-dasharray:none"
         d="M 0.15355985,0.203125 V 32.683594 H 30.114497 V 8.4257812 c -0.01915,-0.00446 -0.03783,-0.00132 -0.05664,-0.011719 5.42e-4,0.011744 5.77e-4,0.023281 0.002,0.035156 0.0399,0.4992195 -0.456416,0.5473845 -0.503906,0.048828 -0.0018,-0.018663 -0.0027,-0.035984 -0.0039,-0.054687 -0.0013,-0.01886 -0.0039,-0.03784 -0.0059,-0.056641 -0.0024,-0.026245 -0.0049,-0.053887 -0.0078,-0.080078 -0.0035,-0.031147 -0.006,-0.060676 -0.0098,-0.091797 -0.0043,-0.036813 -0.0094,-0.074513 -0.01367,-0.1113282 -0.0043,-0.040194 -0.0087,-0.080972 -0.01367,-0.1210937 -0.0054,-0.044333 -0.01065,-0.088422 -0.01563,-0.1328125 -0.0057,-0.04663 -0.01194,-0.092037 -0.01758,-0.1386719 -0.0063,-0.05418 -0.01306,-0.1098969 -0.01953,-0.1640625 -0.0074,-0.057506 -0.014,-0.1143745 -0.02148,-0.171875 -0.0042,-0.031855 -0.0092,-0.063745 -0.01367,-0.095703 -0.02455,-0.031025 -0.04751,-0.063355 -0.07031,-0.095703 -0.02193,-0.030238 -0.04332,-0.060993 -0.06445,-0.091797 -0.01309,-0.019237 -0.02741,-0.03771 -0.04102,-0.056641 -0.04434,-0.00796 -0.0888,-0.016218 -0.132813,-0.025391 -0.04571,-0.00941 -0.09119,-0.017062 -0.136718,-0.027344 -0.04043,-0.00924 -0.08074,-0.019736 -0.121094,-0.029297 -0.03496,-0.00852 -0.07043,-0.01722 -0.105469,-0.025391 -0.03369,-0.00772 -0.06788,-0.01571 -0.101563,-0.023437 -0.02947,-0.00704 -0.0584,-0.014538 -0.08789,-0.021484 -0.02497,-0.00598 -0.04911,-0.010284 -0.07422,-0.015625 -0.02424,-0.0054 -0.05012,-0.011606 -0.07422,-0.017578 -0.01812,-0.00456 -0.03465,-0.00895 -0.05273,-0.013672 -0.02145,-0.00572 -0.04378,-0.011366 -0.06445,-0.019531 -0.407566,-0.1609917 -0.310238,-0.5669506 0.02344,-0.5214843 0.04766,0.0065 0.101703,0.021867 0.158204,0.048828 0.0036,0.00171 0.006,0.00304 0.0098,0.00391 0.01636,0.0043 0.03437,0.0076 0.05078,0.011719 0.01975,0.00477 0.03876,0.00925 0.05859,0.013672 0.02751,0.0058 0.05468,0.011091 0.08203,0.017578 0.02959,0.00698 0.06028,0.014427 0.08984,0.021484 0.01579,0.00361 0.0313,0.00778 0.04687,0.011719 -0.01571,-0.1435 0.06891,-0.252668 0.214844,-0.2402343 0.0771,0.00657 0.166635,0.047177 0.259766,0.1308593 0.0044,0.00399 0.0091,0.00786 0.01367,0.011719 0.0033,-0.1881748 0.09312,-0.3001459 0.201172,-0.3144531 0.125381,-0.016603 0.26791,0.091605 0.300781,0.3398437 0.0043,0.032085 0.0077,0.063929 0.01172,0.095703 0.0883,0.00252 0.171951,0.075228 0.230469,0.2011719 h 0.002 c 0.02476,0.00379 0.04947,0.00786 0.07422,0.011719 V 0.203125 Z m 0.45117187,2.9765625 c 0.0544237,-0.021593 0.053044,-0.00166 0.0859375,0.09375 0.006103,0.018515 0.0117009,0.038052 0.0175781,0.056641 0.005947,0.019696 0.0132395,0.039007 0.0195312,0.058594 0.005695,0.017855 0.011595,0.035173 0.0175781,0.052734 0.10976225,0.00426 0.22790748,0.080498 0.28124998,0.2871094 0.00837,0.03242 0.00543,0.016703 0.013672,0.048828 0.012688,0.049102 0.024708,0.099262 0.037109,0.1484374 0.012269,0.049065 0.023614,0.097243 0.035156,0.1464844 0.01138,0.047766 0.021796,0.094819 0.033203,0.1425782 0.011432,0.04838 0.02202,0.098045 0.033203,0.1464843 0.010671,0.048547 0.023503,0.09773 0.033203,0.1464844 0.00907,0.045957 0.018557,0.090706 0.027344,0.1367187 0.00907,0.046353 0.017016,0.092188 0.025391,0.1386719 0.00743,0.043819 0.014306,0.088953 0.021484,0.1328125 0.00716,0.042594 0.014008,0.084415 0.021484,0.1269532 0.00636,0.038506 0.014228,0.076887 0.021484,0.1152343 0.00689,0.036242 0.013863,0.073279 0.021484,0.109375 0.0076,0.03541 0.015808,0.070066 0.023437,0.1054688 0.00693,0.032232 0.012397,0.065467 0.019531,0.097656 0.00588,0.028689 0.012012,0.05719 0.017578,0.085937 0.005,0.025925 0.00938,0.052073 0.013672,0.078125 0.00347,0.020229 0.00642,0.040299 0.00977,0.060547 0.00242,0.013681 0.00468,0.027475 0.00781,0.041016 0.00263,0.012363 0.00522,0.024743 0.00781,0.037109 C 1.5530315,6.2636266 1.0620041,6.3747105 0.958245,5.8847651 0.955254,5.8706421 0.951389,5.8578861 0.948479,5.8437491 0.943991,5.8240421 0.940328,5.8030931 0.9367602,5.7832021 0.9330142,5.7618781 0.9306632,5.7400851 0.9269942,5.7187491 0.9231802,5.6964431 0.9196782,5.6745441 0.9152754,5.6523431 0.9100394,5.6252291 0.9051969,5.5993161 0.8996504,5.5722651 0.8928094,5.5417561 0.8847724,5.5110271 0.878166,5.4804681 0.870477,5.4449341 0.8623639,5.4085921 0.8547285,5.3730462 0.8487495,5.3448172 0.8425098,5.3170922 0.8371504,5.2890622 0.8166821,5.2603522 0.7961852,5.2328502 0.7785567,5.1953122 0.7718757,5.1810852 0.7656833,5.1665802 0.7590254,5.1523432 0.7492844,5.1312842 0.7393976,5.1089812 0.7297285,5.0878902 0.7184665,5.0627722 0.7079413,5.0387202 0.6965254,5.0136712 0.68246447,4.9835948 0.66855,4.9524192 0.65551297,4.921875 0.64065271,4.8855734 0.62642228,4.8491885 0.61254422,4.8125 0.59792463,4.7751094 0.5831886,4.7369815 0.56957547,4.6992188 0.55486722,4.6586402 0.54246054,4.6189846 0.52855985,4.578125 0.51397925,4.5347038 0.49991331,4.4907711 0.48559109,4.4472656 0.47013088,4.4011217 0.45485598,4.3531898 0.44066922,4.3066406 0.42631125,4.259338 0.41377437,4.2133889 0.39965359,4.1660156 0.3850432,4.1164936 0.36920404,4.0671408 0.35473172,4.0175781 0.33974694,3.9680218 0.32640605,3.9168454 0.31176297,3.8671875 0.2986048,3.8220036 0.2856912,3.7776538 0.27270047,3.7324219 0.26170066,3.6935249 0.24955059,3.6543885 0.23949734,3.6152344 0.23111558,3.5826168 0.22346283,3.5504308 0.21605985,3.5175781 0.20994445,3.491132 0.20531228,3.4642007 0.20043485,3.4375 c -0.003176,-0.016706 -0.006834,-0.03403 -0.009766,-0.050781 -0.002353,-0.011657 -0.004111,-0.023398 -0.005859,-0.035156 0.004405,0.024356 -7.2573e-4,-0.00909 -0.001953,-0.017578 0.2578761,-0.069763 0.36745131,-0.1327026 0.421875,-0.154297 z M 9.8937943,4.0527344 c 0.048495,-0.00663 0.1021702,-0.00549 0.1640627,0.00391 0.04106,0.00623 0.08206,0.012837 0.123047,0.019531 0.0463,0.00755 0.09427,0.014266 0.140624,0.021484 0.04385,0.00715 0.08696,0.014633 0.130859,0.021484 0.0414,0.00656 0.08352,0.013563 0.125,0.019531 0.04036,0.00595 0.08079,0.011204 0.121094,0.017578 0.03662,0.0057 0.07273,0.012023 0.109375,0.017578 0.03307,0.0051 0.0665,0.010765 0.09961,0.015625 0.02873,0.00451 0.0572,0.00921 0.08594,0.013672 0.02323,0.0036 0.04511,0.00625 0.06836,0.00977 0.01486,0.00225 0.02995,0.0045 0.04492,0.00586 0.01244,0.00134 0.02748,0.00247 0.04102,0.00391 0.497991,0.053084 0.446198,0.5469896 -0.05273,0.5039063 -0.01368,-0.00118 -0.02736,-0.00246 -0.04102,-0.00391 -0.02211,-0.00201 -0.04445,-0.00453 -0.06641,-0.00781 -0.02402,-0.00362 -0.04826,-0.00799 -0.07227,-0.011719 -0.02902,-0.00448 -0.05887,-0.00913 -0.08789,-0.013672 -0.03271,-0.0048 -0.06498,-0.010587 -0.09766,-0.015625 -0.03688,-0.00558 -0.07253,-0.011843 -0.109375,-0.017578 -0.03887,-0.0061 -0.07825,-0.00992 -0.117187,-0.015625 -0.04336,-0.00623 -0.0876,-0.014634 -0.13086,-0.021484 -0.04467,-0.00696 -0.08819,-0.01421 -0.132812,-0.021484 -0.04631,-0.00729 -0.09237,-0.015903 -0.138667,-0.023448 -0.03917,-0.00639 -0.07795,-0.011622 -0.117187,-0.017578 C 9.5503916,4.4908695 9.5543258,4.0991409 9.8937943,4.0527344 Z M 29.614497,17.685547 c 0.12077,0.03764 0.203476,0.194549 0.128906,0.433594 -0.0086,0.02771 -0.0177,0.05598 -0.02539,0.08398 -0.01022,0.03552 -0.0199,0.07157 -0.0293,0.107422 0.02654,-0.02023 0.05208,-0.04492 0.08203,-0.04492 0.126474,0 0.251953,0.124594 0.251953,0.375 v 0.310547 c 0,0.09139 -0.01009,0.165975 -0.04492,0.236328 9.3e-5,0.0019 -1.69e-4,0.0026 0,0.0039 0.002,0.01496 0.0075,0.03028 0.0039,0.04492 -0.02578,0.102929 -0.03313,0.141665 -0.04492,0.167969 -6.35e-4,0.0058 0.0016,0.0078 0.002,0.01172 0.0018,0.02033 0.0048,0.04018 0.0059,0.06055 0.004,0.0703 0.0034,0.08157 0.0039,0.148438 -0.01307,0.02996 -0.02587,0.05996 -0.03906,0.08984 0.0028,0.01947 -0.0026,0.0364 -0.0059,0.05664 5.92e-4,0.0044 0.0012,-9.25e-4 0.002,0.0059 0.0059,0.05275 0.0036,0.105301 0.002,0.158203 -0.0078,0.25578 -0.143929,0.3734 -0.273438,0.363281 1e-6,0.03052 -1e-6,0.06101 0,0.0918 v 0.05859 c 8e-6,0.500812 -0.505851,0.500812 -0.505859,0 v -0.05859 c -10e-7,-0.0098 0,-0.01951 0,-0.0293 -0.03505,0.01903 -0.07073,0.03707 -0.105469,0.05664 -0.03511,0.01993 -0.07032,0.0407 -0.105469,0.06055 -0.03479,0.01946 -0.0683,0.03795 -0.103515,0.05664 -0.03371,0.01798 -0.06768,0.03509 -0.101563,0.05273 -0.0326,0.0165 -0.0668,0.03278 -0.09961,0.04883 -0.03014,0.01433 -0.05949,0.02907 -0.08984,0.04297 -0.0244,0.01117 -0.04796,0.02183 -0.07227,0.0332 -0.01639,0.0079 -0.0331,0.01622 -0.04883,0.02539 -0.0172,0.01 -0.03575,0.01897 -0.05273,0.0293 -0.01347,0.0081 -0.02572,0.01708 -0.03906,0.02539 -0.01636,0.01054 -0.0339,0.0196 -0.05078,0.0293 -0.01228,0.007 -0.02466,0.01476 -0.03711,0.02148 -0.416834,0.224807 0.148661,-0.207557 -0.181641,-0.410156 -0.002,4.91e-4 -0.0038,0.0015 -0.0059,0.002 -0.0226,0.0055 -0.04588,0.0096 -0.06836,0.01563 -0.02312,0.0058 -0.04704,0.01236 -0.07031,0.01758 -0.02318,0.0048 -0.0448,0.0092 -0.06836,0.01172 -0.01282,0.0016 -0.02628,0.004 -0.03906,0.0059 -0.495634,0.07183 -0.561131,-0.424491 -0.06641,-0.501953 0.0141,-0.0022 0.02882,-0.0041 0.04297,-0.0059 0.0089,-6.51e-4 0.01663,-0.0041 0.02539,-0.0059 0.01689,-0.004 0.03398,-0.0074 0.05078,-0.01172 0.02378,-0.0065 0.04837,-0.01165 0.07227,-0.01758 0.02611,-0.0063 0.05204,-0.01305 0.07813,-0.01953 0.03092,-0.0073 0.06281,-0.01423 0.09375,-0.02148 0.03406,-0.0076 0.0675,-0.01582 0.101563,-0.02344 0.03478,-0.0073 0.06896,-0.01517 0.103515,-0.02344 0.03972,-0.0093 0.07938,-0.01819 0.119141,-0.02734 0.04083,-0.0094 0.0823,-0.01958 0.123047,-0.0293 0.04268,-0.01026 0.08431,-0.02084 0.126953,-0.03125 0.03186,-0.0082 0.06387,-0.01542 0.0957,-0.02344 0.01504,-0.01734 0.03019,-0.03555 0.04492,-0.05273 0.01887,-0.0214 0.03801,-0.04283 0.05664,-0.06445 0.02149,-0.02554 0.044,-0.04951 0.06641,-0.07422 0.02338,-0.02578 0.04654,-0.05075 0.07031,-0.07617 0.02507,-0.02746 0.05056,-0.05507 0.07617,-0.08203 0.0063,-0.0067 0.0079,-0.0077 0.0098,-0.0098 -0.0021,-0.01494 -0.0043,-0.02987 -0.0059,-0.04492 -0.0027,-0.03014 -0.0043,-0.05963 -0.0059,-0.08984 -0.0014,-0.03331 -3e-4,-0.06822 0,-0.101562 1.65e-4,-0.03317 3.6e-5,-0.06648 0.002,-0.09961 0.0012,-0.03667 0.0045,-0.07284 0.0078,-0.109375 0.0032,-0.03465 0.005,-0.06884 0.0078,-0.103515 0.0034,-0.04011 0.0072,-0.0811 0.01172,-0.121094 0.0047,-0.04178 0.01137,-0.08343 0.01758,-0.125 0.0068,-0.04215 0.01384,-0.08299 0.02148,-0.125 0.0078,-0.0442 0.01755,-0.08902 0.02734,-0.132813 0.01,-0.04417 0.02023,-0.08694 0.03125,-0.130859 0.01176,-0.04594 0.02595,-0.09309 0.03906,-0.138672 0.0087,-0.03159 0.0176,-0.06246 0.02734,-0.09375 0.07447,-0.239076 0.232746,-0.320847 0.353516,-0.283203 z M 5.1203567,18.666016 c 0.1247563,-0.02079 0.2683316,0.08262 0.3066407,0.330078 0.00177,0.01143 0.00203,0.01004 0.00391,0.01758 0.00112,0.0031 0.00716,0.02645 0.00977,0.03516 0.00535,0.01773 0.010023,0.03508 0.015625,0.05273 0.00609,0.01939 0.012953,0.03935 0.019531,0.05859 0.00754,0.02243 0.015316,0.04418 0.023437,0.06641 0.00893,0.02412 0.017733,0.04842 0.027344,0.07227 0.010972,0.02569 0.023806,0.05065 0.035156,0.07617 0.012754,0.02857 0.02602,0.0575 0.039063,0.08594 0.012777,0.02662 0.02527,0.05201 0.039063,0.07812 0.015604,0.02987 0.032359,0.06044 0.048828,0.08984 0.018016,0.0315 0.036456,0.06237 0.054687,0.09375 0.019222,0.03256 0.037551,0.06502 0.056641,0.09766 0.020149,0.03507 0.042495,0.07031 0.0625,0.105469 0.020698,0.03486 0.038127,0.06969 0.056641,0.105469 0.1661611,0.02224 0.2581427,0.224709 0.074219,0.482422 -0.00215,0.003 -0.00378,0.0068 -0.00586,0.0098 -0.00561,0.0079 -0.00926,0.01486 -0.013672,0.02344 -0.00628,0.01474 -0.014431,0.03054 -0.021484,0.04492 -0.00717,0.01514 -0.012926,0.02953 -0.019531,0.04492 -0.00831,0.02027 -0.017142,0.04025 -0.025391,0.06055 -0.00992,0.0245 -0.019329,0.04975 -0.029297,0.07422 -0.0092,0.02219 -0.017575,0.0437 -0.025391,0.06641 -0.00586,0.01724 -0.012061,0.03538 -0.017578,0.05273 -0.1517843,0.477256 -0.6343847,0.322903 -0.4824219,-0.154297 0.00678,-0.02128 0.014267,-0.04136 0.021484,-0.0625 0.00316,-0.0091 0.00649,-0.01823 0.00977,-0.02734 -0.1438697,-0.01217 -0.2572797,-0.163229 -0.1660156,-0.429687 0.00107,-0.0031 8.862e-4,-0.0067 0.00195,-0.0098 8.475e-4,-0.0024 0.010206,-0.02935 0.00781,-0.01953 0.00113,-0.0049 0.0043,-0.0221 0.00391,-0.01953 0.00244,-0.01748 0.00145,-0.006 0.00195,-0.0078 0.020181,-0.0731 0.052626,-0.11478 0.082031,-0.166015 -0.0034,-0.0058 -0.00638,-0.01184 -0.00977,-0.01758 -0.019552,-0.03368 -0.039366,-0.06769 -0.058594,-0.101562 -0.018571,-0.03318 -0.037073,-0.06591 -0.054687,-0.09961 -0.018067,-0.03437 -0.036197,-0.06838 -0.052734,-0.103516 -0.013798,-0.03016 -0.027545,-0.06149 -0.041016,-0.0918 -0.013772,-0.03097 -0.027952,-0.06052 -0.041016,-0.0918 -0.011679,-0.02899 -0.022376,-0.05858 -0.033203,-0.08789 -0.00932,-0.02551 -0.01866,-0.05044 -0.027344,-0.07617 -0.00812,-0.02374 -0.015932,-0.04834 -0.023437,-0.07227 -0.00601,-0.01952 -0.011734,-0.03902 -0.017578,-0.05859 -0.00561,-0.01887 -0.012615,-0.03758 -0.017578,-0.05664 -0.00466,-0.01884 -0.00875,-0.03745 -0.011719,-0.05664 -0.038321,-0.247456 0.068603,-0.39327 0.1933593,-0.414062 z m 24.8437493,0.537109 c -0.02084,0.03536 -0.03341,0.07096 -0.08203,0.107422 0.02541,-0.02972 0.05443,-0.05734 0.07617,-0.08984 0.0035,-0.0052 0.0045,-0.01136 0.0059,-0.01758 z m -0.04102,0.21875 c -0.0107,0.01663 -0.01791,0.02912 -0.04883,0.0625 0.04709,0.0033 0.04723,-0.03074 0.04883,-0.0625 z M 2.4621536,25.244141 c 0.1052685,0.01253 0.1932341,0.116769 0.2011719,0.294921 0.013135,-0.01842 0.031086,-0.03854 0.041016,-0.05664 0.090341,-0.164648 0.2086316,-0.218154 0.3046875,-0.199219 0.1600932,0.03156 0.2607436,0.265114 0.083984,0.523438 -0.061675,0.09014 -0.1326135,0.172331 -0.1953125,0.261718 -0.00965,0.01376 -0.018408,0.03105 -0.027344,0.04297 -0.00147,0.0034 -0.00439,0.0063 -0.00586,0.0098 -0.016784,0.03932 -0.032007,0.07983 -0.048828,0.11914 0.019237,-0.0172 0.021015,-0.023 -0.00781,0.0293 -0.017201,0.02883 -0.035534,0.05906 -0.052734,0.08789 -0.00369,0.0093 -0.00514,0.01852 -0.00977,0.02734 -0.03065,0.05851 -0.055845,0.08487 -0.029297,0.05469 -0.024589,0.06272 -0.058759,0.126184 -0.097656,0.183594 7.511e-4,0.01174 0.00119,0.02357 0.00195,0.03516 0.00239,0.04208 0.00559,0.08307 0.00977,0.125 0.00456,0.0431 0.010053,0.08593 0.015625,0.128906 0.00594,0.04408 0.01252,0.08889 0.019531,0.132813 0.00717,0.04357 0.01643,0.08762 0.025391,0.130859 0.00893,0.04564 0.018537,0.08953 0.029297,0.134766 0.010547,0.04487 0.024553,0.09043 0.037109,0.134765 0.012809,0.04492 0.026718,0.08835 0.041016,0.132813 0.010275,0.03215 0.00349,0.01687 0.013672,0.04883 0.1520354,0.477177 -0.3284373,0.629522 -0.4804687,0.152344 -0.00995,-0.03124 -0.00567,-0.01572 -0.015625,-0.04687 -0.016109,-0.0501 -0.032457,-0.09977 -0.046875,-0.150391 -0.014506,-0.05122 -0.028824,-0.102459 -0.041016,-0.154297 -0.011928,-0.05021 -0.02324,-0.09985 -0.033202,-0.150437 -8.007e-4,-0.0039 -0.00117,-0.0078 -0.00195,-0.01172 -0.01582,0.02275 -0.031451,0.04545 -0.050781,0.06641 -0.016625,0.01802 -0.036245,0.03264 -0.052734,0.05078 -0.00599,0.0066 0.01449,-0.01011 0.021484,-0.01562 -0.2017666,0.235337 -0.031183,0.03149 -0.109375,0.105468 -0.00176,0.0034 -0.0041,0.0064 -0.00586,0.0098 0.022343,-0.01901 0.045058,-0.03831 0.035156,-0.02734 -0.019934,0.02209 -0.1902642,0.157768 -0.039063,0.03516 0.00135,-0.0026 0.00256,-0.0052 0.00391,-0.0078 -0.025095,0.02135 -0.050377,0.0434 -0.039062,0.03125 0.068511,-0.07354 0.026017,-0.02313 0.044922,-0.04102 0.00688,-0.01314 0.014603,-0.02593 0.021484,-0.03906 0.2323921,-0.443629 -0.6880228,0.320583 -0.4882812,-0.138672 0.013167,-0.03027 0.027849,-0.05957 0.041016,-0.08984 0.2851644,-0.296863 0.02348,-0.02658 0.041016,-0.04102 0.020606,-0.01696 0.040431,-0.03478 0.058594,-0.05469 0.00105,-0.0015 0.00286,-0.0024 0.00391,-0.0039 0.020868,-0.0296 0.038218,-0.06133 0.060547,-0.08984 0.00612,-0.0078 0.016034,-0.01293 0.023437,-0.01953 0.00308,-0.0024 0.00735,-0.0029 0.00977,-0.0059 0.025171,-0.03161 0.041848,-0.06947 0.066406,-0.101562 0.0058,-0.0076 0.014485,-0.01304 0.021484,-0.01953 0.0838,-0.111497 0.067168,-0.207201 0.1875,-0.28125 6.111e-4,-0.0013 0.00134,-0.0026 0.00195,-0.0039 0.00138,-0.003 0.00325,-0.0035 0.00586,-0.0078 0.00568,-0.01721 -0.00459,0.0089 0.00781,-0.02539 0.015356,-0.03218 0.03371,-0.05103 0.042969,-0.06836 -4.729e-4,-0.02541 -0.00254,-0.05081 -0.00195,-0.07617 8.385e-4,-0.04365 0.00209,-0.08724 0.00391,-0.130859 0.00159,-0.03989 0.00403,-0.07926 0.00586,-0.119141 0.00171,-0.03711 0.00387,-0.07423 0.00586,-0.111328 0.00184,-0.03417 0.00369,-0.06937 0.00586,-0.103516 0.00199,-0.03108 0.00346,-0.06074 0.00586,-0.0918 0.00215,-0.0276 0.00523,-0.05642 0.00781,-0.08398 0.00238,-0.02554 0.00482,-0.0507 0.00781,-0.07617 0.00245,-0.02058 0.00484,-0.04004 0.00781,-0.06055 0.00176,-0.01402 0.00204,-0.02896 0.00391,-0.04297 0.033196,-0.248197 0.1771509,-0.356747 0.3027343,-0.341797 z m 0.4082031,0.867187 c 0.00567,-0.01455 0.014627,-0.02947 0.021484,-0.04492 0.00163,-0.0037 0.00359,-0.01734 0.00195,-0.01367 -0.00854,0.01914 -0.01518,0.03934 -0.023438,0.05859 z"
         inkscape:connector-curvature="0" /></g><path
       inkscape:connector-curvature="0"
       id="path5487"
       d="m 3.696934,27.979953 1.1674528,0.350236 z"
       style="fill:none;stroke:#000000;stroke-width:1.10000002;stroke-linecap:butt;stroke-linejoin:miter;stroke-miterlimit:4;stroke-dasharray:none;stroke-opacity:1" /></g></svg>